<svg id="Слой_1" data-name="Слой 1" xmlns="http://www.w3.org/2000/svg" viewBox="0 0 657.02 657.02"><defs><style>.cls-1{fill:none;stroke:#fff;stroke-miterlimit:10;stroke-width:32px;}.cls-2{fill:#fff;}</style></defs><circle class="cls-1" cx="328.51" cy="328.51" r="312.51"/><path class="cls-2" d="M65.72,281.46a148.32,148.32,0,0,0,88.39,10.15c12.32-2.39,27.27-5.87,36.44-15.13,11-11.18,5.43-26.55,6.61-40.42,2.6-30.4,24.78-55.47,52.53-66.4,14-5.53,30.21-8.58,45.24-6.18,15.78,2.52,27.1,12.12,35.61,25.21s16.34,28.19,17.16,44.08c.85,16.64-4.37,32.89-4,49.52.36,15.21,6.07,29.31,13.31,42.48,7.89,14.35,16.78,28.2,25.59,42q27.28,42.66,57.82,83.13c4.52,6,10.69,12.24,13.29,19.4,1.29,3.55,1.4,7.33-1.16,10.34-3.5,4.12-7,2.18-9.66-1.59-10.15-14.26-19.55-29.12-29.3-43.65-19.6-29.2-38.82-58.71-58.91-87.58-8.27-11.89-17.21-26.41-29.61-34.41-5.22-3.37-11.64-5.14-17.7-3.07-4.76,1.63-8.52,5.12-12.1,8.52-3.4,3.24-7.54,8.3-12.76,6.9l2.64,3.47c-.33-8.33,13.05-10.16,19.05-9.67a38.92,38.92,0,0,1,21.13,9.06c12.14,10.15,18.51,25.5,25.22,39.4a449.65,449.65,0,0,0,52.79,84.07q7.86,9.92,16.28,19.37,4.07,4.56,8.25,9c2.7,2.87,6.75,5.85,8.57,9.41.66,1.3.91,1.81-.17,2.73-1.31,1.13-1.81.09-3.05-.7-1.89-1.2-3.76-2.44-5.64-3.66l-11.28-7.33c-7.59-4.94-15.31-9.73-22.79-14.84-3.11-2.12-6.64-4.77-7.73-8.56s.29-8-.08-11.91c-.52-5.51-3.87-9.22-8.79-11.35-3.73-1.61-10.34-1.75-13.29-4.65-2-2-.09-4.79.23-7.17a8.64,8.64,0,0,0-2.27-7.57c-2.12-2.14-5.31-2.23-7.5-4.05-2.8-2.33-.4-6.9-.54-10.12a8.71,8.71,0,0,0-3.86-7.09c-3-1.87-7.48-.71-9.92-3-3.13-2.93-.78-9.21-.62-12.93.14-3.41-.45-7.1-2.89-9.65-4-4.13-11.06-4.42-14.1.82l6.71,1.81c.79-7.46-7.29-11.46-13.75-11.33-4.55.09-11.29,3.4-15.2-.06-3.23-2.86-3.75-8.51-6.14-12.08-9.34-13.95-28.66-13-43.12-16.94-17.9-4.83-33.13-17.71-41.69-34.05a62.9,62.9,0,0,1-4.87-12.26c-1.05-3.74-3.61-11,.1-13.82,2.9-2.21,8-1.53,11.4-1.35a56.27,56.27,0,0,0,13.22-.62c16.6-3.1,31.32-15.5,37.68-31.06,5.67-13.86,5-36.6-11.73-42.52-14.79-5.25-30.77,6.15-29.42,22a23.29,23.29,0,0,0,33,19.44c14.79-6.54,19-24.71,9-37.31s-28-9.76-34.64,4.47c-3,6.39-2.78,14,1.84,19.5a19.16,19.16,0,0,0,21.89,5.43,19.39,19.39,0,0,0,11.4-20.57c-1.09-8.4-9.81-19.18-5.42-27.74,2.35-4.57,9.27-4.6,13.73-5.08a114,114,0,0,1,15.12-.66,82.73,82.73,0,0,1,29.06,5.56c19,7.64,31.13,24.21,36.61,43.52,5.71,20.12,3.6,40.07,3.31,60.63-.17,11.53,1.12,22.82,5.42,33.59,4.16,10.4,10,20.07,15.45,29.81C392.65,366.58,404.28,387,417,406.71c11.59,18,25.42,35.28,33.06,55.46a86.14,86.14,0,0,1,4.11,14.24c.85,4.38,1.06,8.91,2.28,13.21,2.43,8.57,8.4,12.7,17.23,12.55,20.79-.36,41.43-.49,62.2.84,3.62.23,7.25.48,10.87.81,4.61.41,4.58-6.79,0-7.2-10.6-1-21.26-1.48-31.9-1.82-10-.32-20-.43-30-.21-4.66.1-9.66.89-14.29.34-5.3-.64-6.86-5.21-7.79-9.8-1.72-8.48-2.68-16.7-5.78-24.87a146.77,146.77,0,0,0-11.94-23.89c-10.33-17-22.08-33.19-32.43-50.23-11-18.09-21.37-36.55-31.64-55.05-5.05-9.09-9.87-18.39-12-28.64-2.21-10.52-1.54-21.44-1-32.09,1.6-32.13-2.05-69.23-30-90.07-13.81-10.32-31.29-14.36-48.3-14.5-8.08-.06-17.64,0-25.36,2.68-6.91,2.38-10.21,8.73-10.05,15.79.2,8.79,6.36,16.09,6.59,24.72.29,10.41-12.33,16.44-20,9-5.81-5.68-2.33-14.85,3.52-19,6.27-4.5,13.95-1.8,18.05,4.2s4.65,14.25-.06,20.09c-4.94,6.15-14.5,8.94-21.64,5.1-6.51-3.52-9.85-12.18-7.69-19.19,2.23-7.21,10.39-10.74,17.48-9.27,9.09,1.9,12,12,12,20.15a38.32,38.32,0,0,1-7.49,22,46.17,46.17,0,0,1-19.29,15.55c-7.57,3.24-14.76,3.1-22.8,2.94-6.28-.13-13.52.86-16.64,7.08-3.22,6.41,0,15.77,2.31,22a76.45,76.45,0,0,0,27.58,36,71.33,71.33,0,0,0,20.44,10.07c7.26,2.22,14.86,2.94,22.26,4.58,7.24,1.6,15.23,4,19.29,10.72,3.74,6.23,4.32,13.85,12.71,15.64,3.9.82,21.48-4.13,20.71,3.12-.39,3.69,5,4.71,6.71,1.82s3.61,4.19,3.62,4.34a45.33,45.33,0,0,1-.65,6c-.4,3.54-.36,7.4,1.41,10.62a10.34,10.34,0,0,0,6.49,5c1.32.37,2.73.29,4,.62,3.31.81,3.17,2,2.71,5.06-.94,6.41.19,11,6.47,13.83,1.05.47,3.41,1,4,2,.94,1.52-.72,4.74-.9,6.43a9.6,9.6,0,0,0,1.9,7.16c3,3.82,8.29,4.72,12.7,6,2.25.65,5.12,1.31,6.81,3.08,2.93,3.06,1.14,8.36,1.22,12.14.15,7.74,5,12.89,11,17.11,7.87,5.53,16.15,10.54,24.21,15.78l12.09,7.85c3.41,2.21,7.22,5.62,11.56,5.25,6.37-.53,8.43-8.21,6.17-13.24-1.48-3.29-4.26-5.8-6.72-8.35q-5.14-5.34-10.11-10.85-9.06-10.05-17.49-20.64c-22.88-28.72-40.75-60.06-56.85-92.95-8-16.26-17.94-32.47-35.5-39.47-7.56-3-16.17-4-24.07-1.73-7.23,2.12-14.93,7.36-14.6,15.7a3.68,3.68,0,0,0,2.64,3.47c11.61,3.11,17.58-8.65,26-14,14.4-9.18,29.65,15.77,36.49,25.14,21.36,29.28,40.78,60.13,61,90.22q15.56,23.19,31.13,46.38c3.18,4.73,6.72,10,13.1,10,5.7-.08,10.54-4.6,12.53-9.69,5.39-13.8-10.21-28.14-17.57-38q-15.6-20.85-30.34-42.3-15-21.84-29.14-44.28c-8.88-14.1-18.28-28.27-25.33-43.4a76.59,76.59,0,0,1-7.27-24.86c-.84-8.87.32-17.79,1.52-26.57,2.22-16.26,3.75-31.92-1.93-47.69-5-13.9-12.78-28.13-22.78-39.09s-23.26-16.74-38-17.78c-29-2.05-60.27,10.59-79.39,32.48a84.4,84.4,0,0,0-19.39,38.9,82.52,82.52,0,0,0-1.14,22.24c.63,8.15,1.3,16.38-5.11,22.5-5.23,5-12.52,7.45-19.3,9.49a135.49,135.49,0,0,1-24.5,5,141.54,141.54,0,0,1-48.1-3.07,138.36,138.36,0,0,1-23.7-8c-4.2-1.87-7.87,4.34-3.64,6.21Z"/></svg>