<svg id="Слой_1" data-name="Слой 1" xmlns="http://www.w3.org/2000/svg" viewBox="0 0 657.02 657.02"><defs><style>.cls-1,.cls-2{fill:none;stroke:#fff;}.cls-1{stroke-miterlimit:10;stroke-width:32px;}.cls-2{stroke-linecap:round;stroke-linejoin:round;stroke-width:10px;}</style></defs><circle class="cls-1" cx="328.51" cy="328.51" r="312.51"/><path class="cls-2" d="M317.28,241.19c-3.09-.39-15.69-2.32-24.51-13.28-9.57-11.87-7.78-25.74-7.15-30.63,2.24-17.46,14-27.77,17.36-30.64,3.62-3.09,15.78-13.44,33.7-12.26s28.62,13,30.64,15.32c10.14,11.62,10.86,24.78,11.23,31.66a62.62,62.62,0,0,1-9.19,35.75c-9.58,15.69-23.2,22.45-29.62,25.53a78.93,78.93,0,0,1-38.8,7.15c-8.23-.58-19.54-1.38-30.64-9.19-9.3-6.55-13.84-14.77-16.34-19.41-4.71-8.73-5.93-16.15-8.17-30.64-2.49-16-3.73-24.05-2-34.72a81.89,81.89,0,0,1,73.54-68.43c19.54-2.15,34.36,2.82,43.91,6.13,14.57,5.06,36.83,12.79,50,34.73,10,16.62,10.15,33.63,10.22,41.87.11,14.31-3.06,25-6.13,34.72-15.53,49.24-30.64,82.72-30.64,82.72-3.28,7.27-1.78,3.69-31.66,66.39L342.81,395.4l-98-125.61L128.34,369.87l92.94,166.47,88.85-91.91,85.78,45.95,46-74.55,92.94,30.64L412.26,322.89"/></svg>