<svg id="Слой_1" data-name="Слой 1" xmlns="http://www.w3.org/2000/svg" viewBox="0 0 657.02 657.02"><defs><style>.cls-1,.cls-2{fill:none;stroke:#fff;}.cls-1{stroke-miterlimit:10;stroke-width:32px;}.cls-2{stroke-linecap:round;stroke-linejoin:round;stroke-width:10px;}</style></defs><circle class="cls-1" cx="328.51" cy="328.51" r="312.51"/><path class="cls-2" d="M64,355.57c19.25,9.24,36.62,7.64,42.13-.76,2.61-4,2-8.6,1.53-12.26-4.31-33.17,6.36-65.62,10.72-78.89,4.55-13.82,10.35-24.46,14.56-32.17a245.1,245.1,0,0,1,19.91-30.64,208.57,208.57,0,0,1,66.64-59c12.32-7.16,22-11.33,32.94-16.08,13.78-6,21.22-9.14,32.17-11.49,14.14-3,12.32,0,25.27-3.07,3.41-.8,6.89-1.79,10,0,3.64,2.13,4.35,6.81,5.36,12.26,3.74,20.15,3,4.89,5.36,23.74,2.21,17.85,2.95,32.32,3.07,34.47,1.08,20.75,2.14,16.21,5.36,52.85,4.42,50.36.79,40.48,3.06,49.79.72,2.94,3.42,13.47,0,25.28-1.14,3.95-3,10.42-7.66,11.49s-10.31-3.95-12.25-9.19c-1.47-4-1.61-10,2.3-13.79,3.17-3.1,9-4.74,11.48-2.3s1.2,9.1-2.29,11.49c-1.66,1.13-5.9,2.75-20.68-6.13-12.94-7.77-16.22-12.93-29.11-23.74-16.71-14-22.29-14.64-32.17-26.81a52.81,52.81,0,0,1-10-21.45c-.8-3.9-1.9-9.54.77-11.49,3.13-2.28,9.6,1.86,11.49,3.07,4,2.59,6.5,5.57,12.25,13.78,7.25,10.35,7,10.82,10,14.56,5.17,6.55,6.14,5.39,15.32,14.55,10.33,10.3,15.49,15.45,19.91,23,2.27,3.86,3.71,7.13,5.37,6.89,2.93-.42,3.59-11.47,3.83-15.32.79-13.25-1.13-21.75-2.3-30.64-1.54-11.68.25-8.69-.77-34.46-.64-16.32-1.4-18.63-2.3-39.07-.93-21.49-.43-26.65.77-32.17,1.71-7.88,4.78-22,15.32-26.81,2.59-1.17,5-1.51,14.55-.76,15.18,1.19,26.1,2,42.13,6.89,15.29,4.62,12.69,6.06,25.28,9.19,10.44,2.61,16.89,2.78,24.51,8.43a79.2,79.2,0,0,1,9.19,8.42c6.07,6.46,5.94,8.36,10,11.49s5.16,2.12,15.32,6.13c7,2.77,12,4.74,16.85,8.43,3,2.26,6.18,5.4,11.49,13.78s9.08,16.25,14.55,29.88c3.84,9.58,6.44,17,11.49,31.4,5.54,15.85,8.33,23.86,9.19,28.34,1.57,8.19,1.32,11.81,3.83,29.11.89,6.13,1.72,11.16,2.3,14.55"/><path class="cls-2" d="M114.55,368.6c1.3,7.45,3.23,16.84,6.13,27.57a256.76,256.76,0,0,0,9.19,28.34c3.44,8.75,6.73,17.15,13,27.58a151.77,151.77,0,0,0,13.79,19.14c8.17,9.69,14.3,17,24.51,23,.61.36.14.07,22.21,10,9.27,4.15,14,6.28,17.62,9.19,7.6,6.06,6.16,8.83,13,13.79,6.44,4.65,13,6,20.68,7.66,5.67,1.19,5.62.59,18.39,2.3,9.56,1.28,14.35,1.92,18.38,3.06,10.08,2.86,10.26,5.39,19.91,8.43a69.29,69.29,0,0,0,22.22,3.06c8-.11,11.86-1.53,24.51-4.6,22.69-5.51,21.8-3.77,39.06-8.42,12.59-3.39,19.34-5.21,28.34-9.19,13-5.76,21.57-12,31.41-19.15,14.33-10.43,23.53-17.14,32.93-29.11,4.14-5.27,8.63-12.7,17.62-27.57,5.38-8.91,8.07-13.36,11.49-19.92a268.17,268.17,0,0,0,13.79-31.4c7.09-18.93,3.85-15.82,10-31.41,5.19-13.24,9-19.21,6.13-26-1.56-3.75-5.37-8.32-10-8.42-3.45-.08-6.09,2.4-8.42,4.59s-6.65,7.18-5.36,9.19,7.34.19,13-1.53c13.29-4,16.19-7.82,23.74-9.19,3.64-.66,9.1.82,19.92,3.06,4.14.86,7.57,1.69,10,2.3"/></svg>