<svg id="Слой_1" data-name="Слой 1" xmlns="http://www.w3.org/2000/svg" viewBox="0 0 657.02 657.02"><defs><style>.cls-1{fill:none;stroke:#fff;stroke-miterlimit:10;stroke-width:32px;}.cls-2{fill:#fff;}</style></defs><circle class="cls-1" cx="329.51" cy="329.51" r="312.51"/><path class="cls-2" d="M62.33,394.75c20.2-15.75,27.56-41.54,33.32-65.37,7.71-31.92,15.27-63.87,22.9-95.8l-6.58.86c10,18.61,29.81,27.82,48.94,34.44,7.39,2.55,18.54,7.66,25.72,1.95a8.81,8.81,0,0,0,2.74-9.94c-1.76-4.88-6.75-7.35-11.18-9.28a358.6,358.6,0,0,0-38-14c-4.42-1.35-9.34-3.23-13.87-1.27-5,2.14-7.57,7.78-9.25,12.57-3.75,10.73-3,22.41-7.13,33.1-3.56,9.28-9.49,17.56-15.78,25.17-14.2,17.19-31.22,32.7-38.79,54.25a3.64,3.64,0,0,0,2.51,4.43,346.13,346.13,0,0,0,51.43,11.28c14.67,2,31.42,5.07,45.51-1.09,10.87-4.75,18.27-15.33,23.6-25.53a129.44,129.44,0,0,0,12.21-35.23c3.31-17.17,4.08-34.51,9.81-51.17l-5.28,2.16c16.92,10.34,37.35,17.82,57.13,11.51,8.84-2.82,15.68-8.15,21.59-15.16,6.88-8.14,12.91-14.92,24-16.52,9.79-1.4,20.81-.61,30.56.89,10.42,1.6,19.14,5.8,24.82,15s10.78,19.82,9,30.74c-1.53,9.38-2.48,17.79,2.34,26.44,4.24,7.62,12.1,14,21,14.77,7.76.69,16.19-2.79,18.16-10.91a3.67,3.67,0,0,0-1.65-4.06c-5.8-3.18-12.51-6.22-19.08-3.45-5.57,2.34-8.63,7.82-6.95,13.74,1,3.59,2.9,7.07,4.37,10.49a103.2,103.2,0,0,0,4.67,10.33,20.7,20.7,0,0,0,5.78,6.73c3.15,2.25,7.06,3.11,10.06,5.56,5.19,4.22,12.88,16.05,10.51,22.94-2.66,7.72-13.8,6.69-19.82,4.7-6.49-2.13-14.49-7.41-17-14.12-.31-.84-1-3.26-.43-4,1.1-1.35,2.4,1.57,2.94,2.68a66.17,66.17,0,0,1,4.9,12.73c2.18,8.71.26,20.67-10.5,21.93-9.48,1.11-16.39-6.65-19.29-14.85l-4.43,4.43c10.31,2.33,13.74,15.93,4,21.64-5.14,3-11.72,1.22-17.19.25l-17.25-3.06,1.58,6c8.36-7.45,20.44,4.53,11.75,12.77-4.82,4.58-11.67,1.09-16.77-1.12-6.24-2.71-12.45-5.51-18.65-8.33q-36.78-16.67-72.68-35.17c-2.64-1.36-5.05.39-5.41,3.11-1.27,9.54-1.38,21.68,7.58,27.72,6.7,4.53,16.09,4.05,20.74-3l-6.71-1.82c2,19.62,26.36,26.12,37.71,9.88L270,425c-2.69,8.23,2.28,18,10.93,20,9.66,2.23,18.49-6.12,18.6-15.55l-3.6,3.6c14.27,1.24,25.93-13.15,22.6-26.83L315,410.77c6.93.31,14.82.29,20.13-4.92a13.08,13.08,0,0,0,3-15.21l-4.07,5.29c7.45,1.26,14.24-2.11,18.49-8.3,5.32-7.76,4.63-17.69,3.75-26.59l-2.64,3.47c8.5-1.89,18.29-5,22.84-13.14,5.12-9.14.65-19-5.34-26.39-6.62-8.2-15.51-16.52-25.12-21a28.79,28.79,0,0,0-13.72-3c-5.77.33-11,3.82-16.79,3.32-1.95-.17-3.59,1.79-3.6,3.6a35.27,35.27,0,0,1-17.39,30.27c-1.43.84-3.3,2.12-5,2.33-3.49.46-3.52-2-4.07-4.7-3.25-15.84-2.74-34.82,7.93-47.93,11.45-14.06,32.43-19.65,49.34-23.67,18.52-4.4,37.58-4.39,54.91,4.2A89,89,0,0,1,433.91,302c4.84,8,8.65,17.19,8.77,26.66s-4.25,17.16-10.25,24.24c-2.5,2.93-5.12,5.75-7.57,8.72-2.27,2.75-5.69,6.08-6,9.79-.68,7.26,8.7,8.22,13.9,7.33,17.48-3,25.37-23.34,27.85-38.74,1.7-10.63.82-21.35-1-31.89-1.77-10.18-3.76-20.75-8.84-29.87-3.84-6.87-9.39-13.07-16.72-16.21-9.09-3.9-19.56-3-28.07-8.4l-.85,6.58c15-6.25,35.36-14,48.35.21,9.73,10.6,11.81,26.5,18.24,39,2.12,4.13,8.33.49,6.22-3.63-7.27-14.16-9.39-32.4-22.17-43.16-15.41-13-36-6.28-52.56.61-2.8,1.17-3.68,4.79-.86,6.58,7.67,4.88,16.4,5,24.91,7.43,9,2.49,14.83,9.2,18.73,17.39,4.59,9.64,6.4,21.42,7.67,31.93,1.29,10.67.89,21.31-2.43,31.58-3,9.31-7.73,20.28-18.11,23.13-.71.19-5.92,1.33-6.58.24-.31-.52,3.18-4.47,3.47-4.82,2.93-3.57,6.12-6.92,9-10.49,5.25-6.43,9.36-13.37,10.51-21.72,1.23-9-.82-18-4.32-26.25-13.31-31.44-45.93-55.15-80.48-54.37-19,.43-39,6.22-56.17,14.19-15.94,7.39-27.25,20-30.59,37.52a81.08,81.08,0,0,0-.1,27.58c1.13,7.35,3.36,17,13.08,14.42,17-4.53,28.19-23,28.29-39.77l-3.6,3.6c8.23.72,15-4.92,23.38-2.56s15.42,9,21.5,15c5.64,5.58,14.09,14.39,10.22,23.06-3.11,7-12.15,9.11-18.88,10.61a3.62,3.62,0,0,0-2.65,3.47c.6,6,1.36,12.48-.5,18.38C347,384.69,342.06,390,336.06,389a3.66,3.66,0,0,0-4.07,5.29c1.65,3.63-1.89,7-4.9,8.27-3.77,1.54-8.07,1.2-12,1a3.64,3.64,0,0,0-3.48,4.55c2.31,9.47-6.19,18.54-15.65,17.72-2-.17-3.57,1.78-3.6,3.6-.06,5.25-5.37,10.36-10.76,8.19-4.24-1.7-6-6.63-4.63-10.77s-4.36-5.95-6.58-2.77c-7.1,10.15-23,6.2-24.29-6.25-.35-3.51-4.64-4.94-6.7-1.82-3.1,4.69-10.3,2-12.91-1.75-3.82-5.47-2.83-13.14-2-19.34L219,398q25.1,12.9,50.6,25,13.2,6.22,26.5,12.21c7.71,3.47,15.78,8.14,24,10.07,11.9,2.79,23.93-7.52,20.33-20.11-3.27-11.41-18.32-13.95-26.58-6.59-1.92,1.7-1,5.55,1.59,6,8.7,1.55,17.48,3.64,26.28,4.49,7.45.73,14.56-1.22,19.24-7.35,8.45-11.09,2.12-26.83-11.25-29.86-2.48-.56-5.39,1.7-4.42,4.43,2.95,8.36,8.55,16.1,17.26,19.05,8.23,2.78,17.74.64,23.05-6.48,5.81-7.8,5.28-18.15,2.31-26.95-2.11-6.28-6.52-21.31-16-17.78-6.85,2.55-5.59,12.18-2.59,17.13a37.67,37.67,0,0,0,21.06,15.93c7.84,2.38,18,2.34,24.2-3.76,7.29-7.14,4.05-17.43-.39-25.13-2.62-4.52-5.52-9.28-9.85-12.37-5.06-3.6-10.21-4.17-13.39-10.11-2.86-5.35-6.14-11.92-7.73-17.75-1-3.82,1.18-6.22,5-6.47s7.22,1.93,10.24,3.59l-1.65-4.06c-2.07,8.52-14,5.94-19.17,2.22-8.29-6-10.65-15.5-9.06-25.2.72-4.36,1.74-8.76,1.39-13.21-.36-4.73-2.07-9.1-3.94-13.4-3.53-8.11-7.41-16.6-14.27-22.48-12.7-10.9-33.67-11.37-49.55-10.52C294,239,286,241,279.44,246.19c-6.79,5.42-11,13.31-17.81,18.74-18.85,15.14-44.57,6.34-62.85-4.82a3.65,3.65,0,0,0-5.29,2.15c-8.53,24.81-7.11,51.61-17.26,76-4.35,10.47-10.35,22.11-19.88,28.76-11.72,8.17-28.1,5.35-41.35,3.69A341.23,341.23,0,0,1,59.79,359l2.51,4.43c11-31.28,43.34-48.94,54.8-80.06,3.14-8.52,3.44-17.49,5.26-26.31.81-4,2.31-11.77,6.35-13.83,2.35-1.21,5.44.17,7.76.86,3,.89,6,1.84,9,2.82,10.75,3.52,21.95,7.19,32.08,12.28,1.48.75,5,2.31,5.13,4.21.22,2.64-2.59,2.72-4.5,2.7-4.09,0-8.06-1.69-11.89-3-18.48-6.14-38.37-14.27-48.09-32.31a3.64,3.64,0,0,0-6.58.86Q100.54,278,89.46,324.31c-5.67,23.71-12,49.62-32.22,65.35-3.65,2.85,1.48,7.91,5.09,5.09Z"/><path class="cls-2" d="M471.2,297.77a277.49,277.49,0,0,1,.24,34c-.55,10-1,20.66-4.71,30.05-7.16,18.15-28.63,17.86-42.93,27.46a3.64,3.64,0,0,0-.73,5.65c9.14,9,23,7.88,34.87,7.95,14.38.08,28.8-.25,43-2.42A116.85,116.85,0,0,0,541,387c5.8-3.27,11.46-6.66,17.6-9.24s12.47-5.14,17.82-9.48c10.13-8.25,17.06-20.76,22.72-32.32,5.89-12.05,8.85-25.1,3.21-37.82-5.09-11.47-15.06-19.71-25.85-25.61-12.75-7-26.75-12.17-40.44-17-32.11-11.22-65.88-17.95-100-17.56l.95,7.07c24.46-5.25,49-10.56,73.81-13.67,22.27-2.78,45.4-2.53,66.61-10.75,4.27-1.66,2.42-8.62-1.92-6.94-21.79,8.44-45.68,8-68.56,11-24.17,3.21-48,8.31-71.85,13.43-4,.86-3.06,7.12,1,7.07,27.3-.31,54.33,4,80.5,11.67a373.8,373.8,0,0,1,38.19,13.51c11.57,4.8,23.79,9.92,32.77,18.94,9.24,9.27,13,21.17,9.07,33.86-3.57,11.63-10.81,24.15-18.68,33.44-8.52,10.09-20.33,12.93-31.5,19C534.82,381.86,524,388,511,391.18c-13.88,3.39-28.22,4.28-42.46,4.47q-10.42.14-20.84-.09c-6.91-.16-14.32-.61-19.52-5.72l-.73,5.65c7.9-5.3,17.21-7.39,25.84-11.15s15.57-9.58,19.46-18.32c4.07-9.16,4.87-19.52,5.6-29.4a276.78,276.78,0,0,0,.07-38.85c-.31-4.6-7.52-4.63-7.2,0Z"/><path class="cls-2" d="M172.38,364.67c8.37-4.83,19.3.47,26.9,4.72,7.78,4.36,14.83,10.43,18,19l5.29-4.07A192,192,0,0,0,161,363.49c-4.53-.71-6.48,6.23-1.91,6.95a185.9,185.9,0,0,1,59.8,20.09c2.55,1.38,6.44-.95,5.29-4.06-4-10.89-12.54-18.63-22.62-24-9.85-5.25-22.33-10.07-32.85-4-4,2.32-.39,8.54,3.64,6.22Z"/></svg>