<svg id="Слой_1" data-name="Слой 1" xmlns="http://www.w3.org/2000/svg" viewBox="0 0 657.02 657.02"><defs><style>.cls-1{fill:none;stroke:#fff;stroke-miterlimit:10;stroke-width:32px;}.cls-2{fill:#fff;}</style></defs><circle class="cls-1" cx="328.51" cy="328.51" r="312.51"/><path class="cls-2" d="M85.82,301.79c21.61-10,43.74-20.87,60.38-38.35,15.13-15.9,25.43-37.45,23.15-59.76-.44-4.31-7.31-6.16-8.25-1.12q-12.91,69.23-25.5,138.52-3.19,17.57-6.36,35.13c-1.79,10-2.92,20.34-6,30-2.37,7.37-7.44,15.56-16.31,14.18-2.74-.43-6.38-1.9-7.44-4.73-1.54-4.1,2.61-7.44,6.07-8.52,9.51-3,20.24,5.72,28.18,9.89,9.09,4.76,18.5,9.12,28.38,12a79.87,79.87,0,0,0,55.22-3.68c36.29-15.94,56.31-52.51,66.63-89a308,308,0,0,0,10.8-64,277.86,277.86,0,0,0,.29-33.9c-.54-9.19-2.16-18.65-8.14-26-10.59-13-30.81-15.8-46.53-14.48-18.28,1.54-32.66,11.14-38.71,28.79-6.11,17.81-5.37,38.84-4.17,57.36a263.89,263.89,0,0,0,11.44,61.7C215,365.14,223,385,234.46,401.89c10.27,15.15,24.74,25.93,42.83,29.66,36.55,7.53,70.41-12.25,91.28-41.32,23.77-33.13,31.51-76.65,35.46-116.42,1.9-19.06,1.39-40.68-9.77-57.13-8.51-12.53-22.87-22-38.29-22.57-41.46-1.45-45,57.08-45.29,86.08-.25,22.62,2.31,45.17,5.82,67.48,1.75,11.06,3.72,22.08,5.8,33.07,1.76,9.3,3.79,18.58,7.77,27.21,7.89,17.12,24.41,27.47,42.74,30.19,17.62,2.62,35.41-1.66,51-10,35-18.74,53.47-55,66.55-90.83,7.52-20.62,14.67-41.56,21-62.57,5.63-18.54,8.62-38.65-.27-56.69-7.23-14.65-22.06-23.81-38.52-21.79-16.65,2-31.37,13.51-39.14,28.13-9.06,17-10.43,36.82-10.57,55.77-.16,22.26.61,44.61,4.2,66.61,5.8,35.51,21.88,80.49,63.57,84.86,39.47,4.14,55.29-39.42,61.05-70.59a234.07,234.07,0,0,0,2.82-64.72c-.41-4.33-7.36-6.16-8.25-1.12a278.88,278.88,0,0,0-.34,94.58c.79,4.73,8.31,3.53,8.25-1.11l-.37-28.84c-.06-4.48-.1-9-.17-13.45-.06-3.37.06-7-1.6-10.09-3.3-6.08-10.33-5.88-16.27-4.87-9.26,1.58-18.48,3.51-27.71,5.27-4.76.9-3.49,8.18,1.12,8.25a726.32,726.32,0,0,0,80.11-3.28c5.33-.51,5.39-8.91,0-8.4a726.32,726.32,0,0,1-80.11,3.28l1.12,8.25,20.32-3.86a77.55,77.55,0,0,1,9.89-1.74c4.85-.27,4.67,3.42,4.73,7.19.21,14.09.36,28.19.54,42.29l8.25-1.12a266.55,266.55,0,0,1,.34-90.12l-8.25-1.11a226.09,226.09,0,0,1-2.52,62.49c-3,16.38-7.35,33.51-17.22,47.25s-25.46,20.47-42.1,15.89c-17.64-4.86-29.82-19.21-37.25-35.3-8.34-18-12-38.44-13.91-58.08a410.3,410.3,0,0,1-1.54-60.21c.86-17.5,4-37,16.55-50.22,10.41-11,27.8-18.37,42.19-10.63,15.42,8.3,19.51,27.84,17.72,43.87-1.19,10.67-4.6,21-8,31.13q-5,15-10,29.9c-11.48,34.31-24,71.3-52.14,95.81-12.8,11.14-28.79,19.51-45.74,21.77s-36.13-2-47.87-15.18c-12.17-13.66-13.78-34.93-16.83-52.15-3.71-20.93-6.87-42-8-63.24-1.08-20.34-.45-41.09,3.84-61.07,3.19-14.88,10.28-32.94,27.38-35.58,14.51-2.24,29.48,7.42,37,19.29,10.29,16.16,9.6,37,7.51,55.25-4.31,37.58-11.68,78.1-34.4,109.31-19.77,27.15-53.21,45.52-87.09,35.38-17.82-5.33-29.48-18.6-38.18-34.47A244.81,244.81,0,0,1,214,333.21a253,253,0,0,1-8.56-58.1c-.49-16.81-1.33-37.4,7.13-52.59,8.84-15.88,28.38-18.11,44.77-15.64,7.75,1.16,16.06,3.56,21.69,9.3,6.82,7,7.45,17.24,7.76,26.45,1.3,39.55-4.22,81.82-20.45,118.22-14.23,31.89-42,62-79.22,63.17-20,.63-38.45-8.31-55.55-17.69-7.13-3.91-14.81-8.53-23.25-8.15-6.74.3-13.79,4-16.47,10.44-5.4,12.94,9.27,21.88,20.6,20,16.14-2.69,19.86-22.25,22.25-35.51q11.31-63,22.91-125.88Q163.38,236,169.2,204.8L161,203.68c4.85,47.53-42.81,73.94-79.37,90.85-4.9,2.27-.64,9.51,4.24,7.26Z"/></svg>