<svg id="Слой_1" data-name="Слой 1" xmlns="http://www.w3.org/2000/svg" viewBox="0 0 657.02 657.02"><defs><style>.cls-1,.cls-2{fill:none;stroke:#fff;stroke-miterlimit:10;}.cls-1{stroke-width:32px;}.cls-2{stroke-width:10px;}</style></defs><circle class="cls-1" cx="328.51" cy="328.51" r="312.51"/><path class="cls-2" d="M143.15,515c9.77.24,24.8.55,43.23.68,17.28.12,24.36,0,44.6,0,35.2,0,33.25.4,58.21.34,23.18-.06,41.85-.1,66-1,16.46-.63,33,.15,49.37-1.71,4.62-.52,9.32.06,13.95-.34a9.71,9.71,0,0,1,3.75.34,8.85,8.85,0,0,1,5.11,3.75,8.41,8.41,0,0,1,.34,7.83c-1.29,2.63-3.76,3.64-7.49,5.1-3.91,1.53-6.92,2-11.58,2.73-13.07,2-11.95,1.93-12.93,2-9,1-15.88.85-24.17.68-9.09-.18-17.86-.23-35.41-.34-7.37,0-15.39-.09-26.21,0-14.28.12-18.94.37-28.94,0-3.08-.11-7.84-.42-17.36-1-7.67-.49-13.47-.9-20.77-2-11.71-1.83-15.49-3.69-17-6.81a20.26,20.26,0,0,1-1.36-5.45,25.12,25.12,0,0,1-.08-8.08c1-4.61,4.53-7.44,8.25-10.3,5.86-4.51,11.32-6.25,18.38-8.51,3.22-1,6.8-1.71,14-3.07a38.48,38.48,0,0,1,9.53,0c1.38.13,2.79.32,3.41,1.37a3.45,3.45,0,0,1-.68,3.74c-1.1,1.25-2.78,1.32-4.43,1.36a16.22,16.22,0,0,1-6.81-1.36,19.83,19.83,0,0,1-9.53-8.51c-.86-1.59-2.68-4.95-1.36-6.81.32-.45.86-.86,4.43-1.7a44,44,0,0,1,5.1-1c2.72-.35,5.71-1.71,11.58-4.43,4.71-2.18,8-3.91,12.25-6.13,8.2-4.29,10-5.57,11.58-6.8a62.44,62.44,0,0,0,6.12-5.79c4.22-4.31,6.33-6.46,8.17-9.53,1.17-1.95,2.14-4.59,4.09-9.88,1.36-3.7,2.18-6.32,3.4-10.21,2.33-7.43,2.6-9.18,2.73-10.21a34.6,34.6,0,0,0,0-8.17c-1.5-14.32,5.73-40.72.34-71.49-1.45-8.28-3.2-13.34-5.79-18-3.33-6-6.1-8-15.66-17.7S287,280.72,281.36,274.27c-1.2-1.38-7-8.11-14.3-17.36a188.59,188.59,0,0,1-14.29-21.1,42,42,0,0,1-5.11-13.62,19.25,19.25,0,0,1,0-8.17,17.12,17.12,0,0,1,3.06-6.47,18.13,18.13,0,0,1,3.69-3.42c3-2.17,5.52-3.18,9.59-4.75a89.38,89.38,0,0,1,11.16-3.46c.5-.12,2.31-.55,4.5-1a112,112,0,0,1,17-1.71c10.28-.42,15.42-.63,22.81-.34,1.51.06,8.2.34,17,1.36,9.17,1.07,9.51,1.64,23.15,3.75,0,0,7.7,1.19,12.8,2.63.2.06.78.23,1.57.43,3,.79,4.84,1.06,6.4,1.37a59.41,59.41,0,0,1,8.51,2.72c3.2,1.17,4.12,1.65,4.76,2.72a5.53,5.53,0,0,1,.34,4.43c-.36,1-1.12,2.11-3.4,3.4a19,19,0,0,1-8.51,2.38c-6.37.16-12.7,1.62-19.07,1.37-26.14-1-19.64-.07-40.17-1.37-10.59-.66-16-1-21.1-1.7a215.91,215.91,0,0,1-26.9-5.44c-12.56-3.31-9.26-3.54-16.68-5.11a31.74,31.74,0,0,1-12.59-5.11c-2-1.45-3.49-3-3.41-4.76a5,5,0,0,1,1.71-3.07,12.2,12.2,0,0,1,5.44-3.06c4.87-1.63,7.3-2.44,8.51-2.72a101.71,101.71,0,0,1,12.26-2c8.88-.9,15.9-1,18-1,17.42-.18,26.13-.28,35.06.34,9.5.66,16.54,1.63,24.52,2.73,10.14,1.39,16,2.2,24.17,4.08,4.91,1.13,12.23,3.82,26.89,9.19,4.18,1.53,8.78,3.29,11.57,7.83a17.41,17.41,0,0,1,2.39,8.51A21,21,0,0,1,410,227.3c-13.65,25.63-20.08,34-20.08,34s-27.44,35.85-49,50c-.08.05-.57.37-1.19.85a21.77,21.77,0,0,0-3.24,3.24c-2.91,3.7-4.08,10.55-4.08,10.55a61.78,61.78,0,0,0-1,12.94c1.72,27.86-.68,55.82-.69,83.74h0a40.87,40.87,0,0,0,.34,4.77,63.48,63.48,0,0,0,2.05,9.53,64.71,64.71,0,0,0,4.08,9.53c.47,1,3.81,7.75,6.13,11.57,6.71,11.07,21.15,24,32.34,27.92,2.86,1,5.65,2.93,11.23,6.81,1.19.82,2.84,2,2.73,3.4-.07.91-.88,1.92-4.43,3.41,0,0-5.37,2.24-15.66,3.4h0c-2.26,0-5.67-.09-9.81-.12-10-.07-15.4.05-24.57.12H286.47a81.65,81.65,0,0,1-14,0,27.18,27.18,0,0,1-9.19-2,29.89,29.89,0,0,1-6.47-4.09,44.79,44.79,0,0,1-8.51-7.83,41.76,41.76,0,0,1-5.79-9.53c-.8-1.82-2.7-6.5-3.74-17.7-.93-10-1.52-16.3.34-24.51,1.24-5.46,2.93-9,6.13-15.66a138.65,138.65,0,0,1,14-22.81c1.48-2,6-7.22,15-17.7,7.6-8.85,11.4-13.27,12.94-15,5.15-5.71,8.45-9.08,13.28-15.32a67,67,0,0,0,6.8-10.55,31.79,31.79,0,0,0,3.41-8.51,27.78,27.78,0,0,0,0-11.24,29.1,29.1,0,0,0-4.43-11.23c-2.86-4.22-5.45-5.33-10.21-9.19-2.57-2.09-5.8-5.59-12.25-12.6C274,277,269.17,271.74,263.32,264.06A148.85,148.85,0,0,1,250,244.32a124,124,0,0,1-9.19-20.77,79.62,79.62,0,0,1-4.42-19.74,78.34,78.34,0,0,1,0-12.26c.35-5.26.53-7.89,1.7-11.23,1.67-4.79,4.23-7.84,6.81-10.9a55.38,55.38,0,0,1,11.57-10.21c4.91-3.41,8.25-5.74,13.28-7.15.95-.27.35-.05,15.66-1,2.49-.16,7.27-.47,13.7-.35h.6a121.65,121.65,0,0,1,14.86,1.24l.8.12c7.58,1.14,8.9,1.74,13.27,2.39l10.9,1,4.94.46c5.64.55,9.78,1,11.4,1.24,10.09,1.18,19.74,1.7,19.74,1.7,6.76.36,11.49.36,19.4.34,6.67,0,11.89-.15,18.05-.68a45.59,45.59,0,0,0,15-3.74c3-1.36,4.47-2.45,5.44-4.09,2.07-3.47.88-7.63.34-9.53a18.05,18.05,0,0,0-4.08-7.15c-.84-1-2.93-3.14-8.17-5.79a59.53,59.53,0,0,0-14-4.76,135.1,135.1,0,0,0-14.3-2.39c-7.52-.93-13.19-1.26-20.76-1.7-3.66-.21-9.27-.52-16.68-.68-5-.1-5.65,0-20.43,0-10.83,0-16.24,0-18,0-2.43,0-8-.16-15.31,0l-2.73,0c-7,.16-12.18.52-14.64.68-14.07.93-12.4.36-18.73,1a142.13,142.13,0,0,0-17.7,3.07c-8,1.9-11.24,3.4-14,5.1a24.78,24.78,0,0,0-7.15,6.47,15.85,15.85,0,0,0-3.4,7.83,14.87,14.87,0,0,0,.68,6.13,13.69,13.69,0,0,0,3.41,6.13c.7.68,2.07,1.83,7.14,3.4a61.54,61.54,0,0,0,8.86,2,111.19,111.19,0,0,0,18.72,1H264c2.44,0,8.78-.12,17.35-.67,3.51-.22,9-.57,16-1.36,3.89-.43,11.32-1.34,20.77-3.06,11.56-2.11,12.34-2.92,23.49-4.77a157.28,157.28,0,0,1,16.34-2,146.92,146.92,0,0,1,16,0c8.5.33,12.88.53,18.72,2a33.44,33.44,0,0,1,9.87,3.75c4.75,2.85,7.42,6.32,9.88,9.53a49.13,49.13,0,0,1,7.15,12.93,51.19,51.19,0,0,1,2.72,13.28,66,66,0,0,1-.34,16c-.59,4-1.53,7.12-3.41,13.28-2.32,7.63-3.82,12.56-6.8,18.72-1.39,2.85-3.65,6.55-8.17,14-3.52,5.75-5.32,8.68-7.49,11.57A139.67,139.67,0,0,1,386.21,276c-2.87,3.08-6.23,6.68-10.89,11.23-3.4,3.32-7.67,7.49-13.62,12.6-6.38,5.48-8.9,7.07-11.91,11.57a28.55,28.55,0,0,0-4.09,8.85,23.1,23.1,0,0,0-.68,9.19,24.57,24.57,0,0,0,3.75,9.54c2.22,3.82,4.59,6.35,8.51,10.55,1.69,1.81,2.6,2.68,4.43,4.5,2.13,2.14,4.47,4.55,11.23,11.84,10.71,11.57,16.07,17.36,18.38,20.08,4,4.75,15.31,18.16,19.4,27.92l3.41,8.17h0c.78,1.87,1.76,4.41,2.72,7.49a53.25,53.25,0,0,1,2.73,12.25c.13,1.66.09,3.83,0,8.17-.1,4.71-.26,4.63-.35,8.86-.12,6.1.21,6.6-.34,8.85-.23.95-.37,1.21-3.06,6.81-3.31,6.89-3.77,7.89-5.11,9.53a42.26,42.26,0,0,1-4.08,4.08c-2.35,2.2-4.08,3.55-5.79,6.13-.89,1.34-1.83,2.76-1.36,3.4.6.83,2.89-.44,6.47-1,3-.48,5.25-.19,9.19.34,4.92.66,7.37,1,9.87,2.39,2.75,1.53,4.67,4,8.51,8.85,3.26,4.13,3.21,4.8,4.77,5.78,3.82,2.41,8.38,1.06,11.91.34,1.17-.23-.52.16,22.47.35,12.73.1,20.32.16,30.64,0,6.08-.1,13.94-.29,23.15-.69"/></svg>