<svg id="Слой_1" data-name="Слой 1" xmlns="http://www.w3.org/2000/svg" viewBox="0 0 657.02 657.02"><defs><style>.cls-1,.cls-2{fill:none;}.cls-1,.cls-2,.cls-3{stroke:#fff;}.cls-1{stroke-miterlimit:10;stroke-width:32px;}.cls-2,.cls-3{stroke-linecap:round;stroke-linejoin:round;stroke-width:10px;}.cls-3{fill:#fff;}</style></defs><circle class="cls-1" cx="328.51" cy="328.51" r="312.51"/><path class="cls-2" d="M164.76,236.66c-8.34-3.55-14.14-3.09-17.87-2-4.57,1.28-5.95,3.42-11.24,4.09-4,.5-5-.47-12.76-1.53a109.33,109.33,0,0,0-15.32-1c-4.93,0-9.73,0-15.32,1.53-4,1.1-6.11,2.29-6.64,4.08-.58,2,1.19,3.13.51,5.11-.74,2.17-3.2,1.8-6.13,4.59-.16.16-4,3.94-3.06,6.13s6.13,1.67,7.66,1.53c3-.27,4.34-1,11.23-3.57,6.51-2.42,7.49-2.57,8.68-2.55.75,0,6.25.17,9.2,4.08.89,1.19,1.67,2.88,1.53,10.21-.14,7-.21,10.51-1.53,15.32-2.26,8.21-4.84,8.18-5.62,14.81-.25,2.15.14,1.1.51,11.75.24,7,.1,8.32,1,10.72,1.27,3.32,3.28,5.35,6.13,8.17a59.88,59.88,0,0,0,10.72,8.17c6.11,3.89,7.07,3.84,15.32,8.68,8.05,4.72,7.52,5,11.23,6.64,1.56.69,5.81,2,14.3,4.6,5.36,1.64,6.61,2,8.68,2,2.68.07,5.06-.46,9.71-1.53,6-1.39,6.07-1.93,8.68-2.05a20.18,20.18,0,0,1,9.7,2.05c2.78,1.4,4,2.93,7.15,6.12,1.93,2,6.31,6.51,10.72,10.22,4.08,3.42,8.65,7.2,14.81,9.19.45.14,2.47.78,5.11,1.53,5.86,1.66,6.55,1.52,8.68,2.55s4.61,2.24,6.12,5.11a10.27,10.27,0,0,1,1,6.13,12.58,12.58,0,0,1-3.58,6.64c-2.52,2.81-3.71,2.41-5.62,5.1-.84,1.2-2.25,3.19-2,5.62.17,1.95,1.2,2.2,2.55,5.11.86,1.83,2.19,4.7,1.54,7.65-.53,2.38-2.12,3.83-4.09,5.62-2.89,2.64-4.19,2.39-7.66,5.11a31,31,0,0,0-5.1,5.1c-2.54,3.23-2.45,4.54-5.11,9.2-2.06,3.6-3.51,6.13-6.13,8.68-3.81,3.71-5.48,3-8.68,6.64a15.53,15.53,0,0,0-4.08,7.65c-.83,4.66,1.05,9.1,1.53,10.22,1,2.29,1.76,3,2,5.1.06.49.64,4.83-1.53,6.13-1.89,1.13-5-.57-6.64-2-3-2.66-3.09-5.9-4.6-12.77-2-9-2.76-7.42-4.59-16.34a107.71,107.71,0,0,1-2-14.81c-.22-3.37-.07-3.82,0-15.32.07-12-.07-14.6-2.05-17.36-1.55-2.16-3.43-3.33-7.15-5.61-5.51-3.4-7.16-2.69-10.72-5.62a23.6,23.6,0,0,1-6.13-8.17,32,32,0,0,1-3.06-11.24,39.43,39.43,0,0,1,0-9.7,26.36,26.36,0,0,1,2-8.17c1.55-3.4,2.62-3.46,3.58-5.61,2.49-5.62-1.18-13.4-5.11-17.88-1.16-1.32-4-3.26-9.7-7.15-4.86-3.31-7.77-5-11.24-8.68-4.27-4.54-4.15-6.57-4.08-7.15.44-3.83,5.52-5.88,6.13-6.12a11.58,11.58,0,0,1,7.15-.51c2.73.73,2.84,2,6.12,3.06,1.72.56,3.88,1.27,6.13.51,3.26-1.09,4.68-4.57,5.11-5.62,1.64-4-.26-5.39,1-10.21.38-1.44,1.4-5.27,4.59-7.66,1.44-1.07,2.1-1,8.17-2.55,5.18-1.37,7.8-2.07,9.2-3.07,2.73-1.94,2-3.16,5.61-7.66,2.59-3.21,5.11-6.33,9.19-7.65,2-.64,1.86-.08,7.66-1s6.77-1.66,7.15-2c2.57-2.48,1.88-7,1.53-9.19a17.14,17.14,0,0,0-4.59-9.19,17.87,17.87,0,0,0-6.13-4.09,14.74,14.74,0,0,0-7.66-1.53,14,14,0,0,0-8.68,4.6c-2.56,3-1.55,4.55-4.08,7.15-.22.22-4.67,4.66-8.68,3.06-3.36-1.34-4-5.92-4.09-6.64-.65-4.67,2.27-8.23,3.06-9.19.62-.75,2.59-3,8.17-5.11,6.6-2.49,12.27-2.55,17.37-2.55A55.47,55.47,0,0,1,224,241.76a63.92,63.92,0,0,1,10.22,3.58c4.52,2,5.12,3,8.68,4.08,1.08.34,2.65.77,9.19,1.53,6.06.71,9.09,1.06,10.72,1a29.52,29.52,0,0,0,15.32-4.09c2.88-1.8,5.67-3.54,6.13-6.64.55-3.66-2.48-7.1-5.11-8.68-3.29-2-6.72-1.46-9.7-1a20.8,20.8,0,0,0-8.17,3.06c-1.93,1.26-5.12,3.34-6.64,7.15-2.27,5.72.26,12.77,4.6,16.34,1.8,1.49,4.61,2.19,10.21,3.58,7.45,1.85,8.75,1.31,14.3,3.06,4.27,1.35,7.28,2.33,10.21,5.11,1.54,1.46,4.34,4.1,4.6,8.17s-2.07,6.9-3.07,8.17c-2.14,2.7-4.07,2.61-7.66,5.1-4.53,3.15-7,4.85-7.15,7.15-.28,4.26,7.63,5.67,7.66,10.22,0,2.7-2.76,3.09-8.68,10.21A38.48,38.48,0,0,0,274,327a37.26,37.26,0,0,0-3.07,9.7,57.44,57.44,0,0,0-1,10.72c-.18,6.22-.25,9.4,1,12.77a20.55,20.55,0,0,0,4.09,6.64c1.32,1.43,5.56,6,11.23,6.13,3.95.07,4.09-2.1,11.24-3.58a21.92,21.92,0,0,1,8.68-.51,18.42,18.42,0,0,1,8.17,3.58c3.59,2.85,5,6.35,6.12,9.19a30.14,30.14,0,0,1,2.05,10.21c.09,3.28-.43,3.48-1,9.7-.46,4.73-.49,8.07-.52,11.24-.05,6-.05,9.08,1,11.23,1.54,3.06,3,2.76,4.59,6.13.53,1.11.87,2.21,1.53,8.68.82,8,.63,9.39,2,10.72s3.62,1.49,7.15,1.53c3,0,6.81.09,10.21-2,1.63-1,3.49-4.27,7.15-10.72,4.8-8.49,5.08-9,5.61-10.21,2.86-6.44,1.77-6.85,4.09-11.24,2.67-5.05,4.3-4.82,8.17-11.23,2.43-4,3.64-6,4.08-8.68,1.08-6.4-2.78-8.39-1.53-14.3a18.39,18.39,0,0,1,5.11-8.68c3.38-3.54,5.14-2.92,7.66-6.13,2.13-2.72,4.3-7.54,2.55-10.72-1.14-2.09-3.09-1.89-7.66-4.09a44.78,44.78,0,0,1-10.21-7.15c-3.65-3.5-5.41-6.9-8.17-12.25-4-7.8-2.93-8.74-6.13-13.28-1.44-2-4.19-4.59-9.7-9.7-4.37-4.05-7.7-6.9-9.19-8.17-8.15-6.92-11.44-8.92-12.77-9.7-7.95-4.68-10.79-3.92-11.74-3.58a7.69,7.69,0,0,0-4.6,4.6c-1.28,3.67,1.06,7,1.53,7.66a11.21,11.21,0,0,0,6.13,4.08c3.92,1.25,7.18.61,10.72,0,11.78-2,17.8-3,24-1.53a26.41,26.41,0,0,1,7.66,3.06,25,25,0,0,1,7.66,7.15c2.31,3.41,1.38,4.06,4.09,9.19,2,3.87,2.59,3.55,5.62,8.69,3.34,5.66,2.88,6.4,4.59,7.65.73.54,2.63,1.74,12.26,1,7.33-.54,11-.81,11.74-2.56,1.18-2.77-3.17-8-7.66-10.72-5.64-3.48-9.89-2.12-11.23-5.11-1.17-2.61.67-6.77,3.57-8.17,3.37-1.62,7.26.94,9.7,2.56,1.86,1.22,3.65,3.21,7.15,7.15,4.28,4.8,3.95,4.95,5.11,5.61,4.58,2.62,7.85-.87,12.26,1.53,3.17,1.74,4.48,5.18,5.61,8.17,1.73,4.57.51,5.75,2,11.24,1.17,4.18,2.4,8.59,6.13,10.21,2.5,1.09,6.1.93,8.17-1,2.35-2.21.63-4.77,2.56-10.72a20,20,0,0,1,5.1-8.68c1.37-1.31,4.67-4.48,9.7-4.6,6-.14,9.95,4.19,10.73,5.11,1.53,1.79,2.23,3.94,3.57,8.17,2.1,6.61,1.85,8.81,3.58,14.29a45,45,0,0,0,4.08,9.71c2.75,4.71,6.13,7.63,12.77,13.27,7.75,6.6,11.7,9.88,14.81,9.19,4.63-1,5.22-7.14,9.19-7.14,3,0,5.31,3.54,7.66,7.14a34.2,34.2,0,0,1,4.59,11.75c.8,4,0,3.87,1,9.7.74,4.37,1.33,5.51,1,8.17-.2,1.66-.59,5.06-3.07,7.15s-4,.65-7.15,2.55c-.88.54-1.3,1-5.1,6.13-2.57,3.47-4,5.47-6.13,8.17a27.37,27.37,0,0,1-4.09,4.6c-1.85,1.52-4.81,3.94-7.15,3.06s-3.32-5.15-3.06-8.17c.44-5,4-6.17,3.58-9.7s-4.59-6-7.66-7.66c-2.25-1.24-8.36-4.6-14.3-2.55-2.39.82-1.65,1.44-8.68,6.12-4.47,3-6.25,3.71-8.17,4.09-2.18.42-5.54,1.08-7.66-1-2-1.94-1.41-5.3-1-7.66.76-4.71,2.62-5,3.57-9.19,1.32-5.74-1.7-7.39,0-11.24,1.49-3.36,5-4.86,9.19-6.64,6.06-2.57,7.83-1.25,12.26-3.57a21.37,21.37,0,0,0,8.68-8.68c1.52-3,1.72-8.33,2-18.89.21-6.84.06-8.16,1-10.73,2.12-5.67,5.29-5.87,6.13-9.7,1.58-7.23-8.56-11.94-7.15-16.85,1.91-6.65,21.77-2.48,25-9.7,3.76-8.35-18.69-23.05-15.32-29.62,2-3.86,15.33,4.54,21.45-1,4.06-3.69,3.72-12.11,1-17.87-4.81-10.28-16.3-10.41-16.34-16.34,0-4.66,7-9.63,13.28-9.71,4.38-.05,7.67,2.29,10.21,4.09,3.34,2.37,3.65,3.78,9.7,10.21s7.49,6.87,8.68,6.64c2.43-.47,4.56-3.92,4.09-6.64-.62-3.55-5.4-4.42-5.11-6.64.21-1.59,2.74-1.54,6.13-4.08,1.28-1,6.12-4.6,5.62-8.68-.39-3.14-3.78-5.3-6.13-6.13-3.24-1.14-4.95.1-10.21.51-4,.31-6.94-.13-12.77-1s-6.76-1.66-13.28-3.07c-12.51-2.7-12.42-.58-21.44-3.06-7.49-2.06-10.26-4.26-13.79-2.55-3.37,1.63-2.78,4.59-6.64,6.64-4.46,2.36-9.71.77-12.25,0-5.16-1.57-5-3.39-10.22-5.62-3.28-1.4-3.67-.82-15.83-2.55-9.07-1.3-10.36-1.83-14.29-1.54a37.31,37.31,0,0,0-9.71,2.05c-3.32,1.19-4.6,2.22-9.7,5.1-2,1.12-7,4-11.74,6.13a72.81,72.81,0,0,1-14.81,5.11c-3.76.82-8.46,1.06-17.87,1.53-7.51.37-11.26.56-16.35.51-9.46-.1-14.2-.15-18.38-.51-6.44-.56-9.87-1.28-12.25,1s-2.1,5.85-2.05,6.64c.2,3.15,1.95,6.68,5.11,8.17s6.34.29,9.7-1A38,38,0,0,0,338.89,254c10.94-9.6,9.21-6.71,19.91-16.34a164.13,164.13,0,0,0,13.28-12.77c5.52-6.08,5.58-7.28,10.21-11.74a67.8,67.8,0,0,1,14.3-10.73,59.35,59.35,0,0,1,12.77-5.1"/><polygon class="cls-3" points="431.48 167.6 448.6 177.82 456.76 182.68 447.31 185.73 431.48 167.6"/><polyline class="cls-2" points="414.12 187.73 422.8 193.65 471.82 177.82"/><polygon class="cls-3" points="444.7 209.53 452.87 191.35 456.76 182.68 447.27 185.6 444.7 209.53"/><polyline class="cls-2" points="418.94 203 422.65 193.18 471.89 178.03"/></svg>