<svg id="Слой_1" data-name="Слой 1" xmlns="http://www.w3.org/2000/svg" viewBox="0 0 654.29 655.54"><defs><style>.cls-1{fill:#d9c697;stroke:#d3c091;stroke-miterlimit:10;stroke-width:32px;}</style></defs><path class="cls-1" d="M624.4,558.59,393.26,327.44,623.75,97a47.42,47.42,0,0,0,0-67.06h0a47.42,47.42,0,0,0-67.06,0L326.19,260.38,97.6,31.8a47.42,47.42,0,0,0-67.06,0h0a47.42,47.42,0,0,0,0,67.06L259.13,327.44,29.89,556.69a47.42,47.42,0,0,0,0,67.06h0a47.42,47.42,0,0,0,67.06,0L326.19,394.51,557.34,625.65a47.42,47.42,0,0,0,67.06,0h0A47.42,47.42,0,0,0,624.4,558.59Z"/></svg>