<svg id="Слой_1" data-name="Слой 1" xmlns="http://www.w3.org/2000/svg" viewBox="0 0 685 685"><defs><style>.cls-1{fill:#29493e;}.cls-2{fill:#fff;}</style></defs><path class="cls-1" d="M342.5,1.93C153.34,1.93,0,154.23,0,342.09A336.81,336.81,0,0,0,45.49,511.6L3.93,671.78a9,9,0,0,0,11.14,11l159.17-44.3A342.79,342.79,0,0,0,342.5,682.26C531.66,682.26,685,530,685,342.09S531.66,1.93,342.5,1.93Z"/><path class="cls-2" d="M346.5,75.78c-146.17,0-264.66,117.69-264.66,262.86a260.29,260.29,0,0,0,35.15,131L85.77,590A9,9,0,0,0,96.92,600.9l119.57-33.28a264.85,264.85,0,0,0,130,33.87c146.17,0,264.66-117.68,264.66-262.85S492.67,75.78,346.5,75.78Z"/><path class="cls-1" d="M516.94,439.16l-1.14-6.51a23.18,23.18,0,0,0-11.24-16.07h0a23.81,23.81,0,0,0-5.53-2.32l-16.09-4.42-46.06-14.63a23.17,23.17,0,0,0-5.6-1l-1.52-.1a23.55,23.55,0,0,0-14.65,4l-6.31,4.27a23.48,23.48,0,0,0-3.85,3.26l-8.16,8.6a23.48,23.48,0,0,1-3.68,3.15l-1.63,1.12a23.48,23.48,0,0,1-20.76,2.93l-3.17-1.06a23.86,23.86,0,0,1-4.81-2.23l-25.91-15.84a21,21,0,0,1-2.27-1.59l-25.47-20.07,0,0L286.2,357.16a24,24,0,0,1-1.81-2.09l-18.47-24a22.52,22.52,0,0,1-2.72-4.52l-1.38-3a23.1,23.1,0,0,1,.84-20.81l1-1.72a23,23,0,0,1,2.77-4l7.81-8.94a23.67,23.67,0,0,0,2.88-4.13l3.64-6.67a23,23,0,0,0,2.5-14.87l-.25-1.49a22.92,22.92,0,0,0-1.61-5.43l-19.28-44L256,196a23,23,0,0,0-2.88-5.24h0a23.4,23.4,0,0,0-17.23-9.49l-6.63-.48a24.26,24.26,0,0,0-3.19,0l-10.06.65a23.39,23.39,0,0,0-15.4,7.17L189.3,200.48a23.76,23.76,0,0,0-3.09,4L174.42,224a23.13,23.13,0,0,0-3,7.86l-3.74,20.78a22.94,22.94,0,0,0-.19,6.87l3.29,27a23.29,23.29,0,0,0,1.5,5.82l12.14,30.14a23.26,23.26,0,0,0,2.63,4.79l28.64,40.14c.26.37.54.74.83,1.1l27,33.49a23.29,23.29,0,0,0,2.07,2.25L266.39,424l-.13.13,1.86,1.57c.34.29.67.58,1,.89l.46.44.05-.06,21.81,18.49a23,23,0,0,0,2.46,1.82l36.27,23.36c.38.25.78.48,1.18.71l43.08,24.26a23,23,0,0,0,5.07,2.12l31.41,9a23.33,23.33,0,0,0,6,.9l27.4.55a23.72,23.72,0,0,0,6.86-.89l20.45-5.78a23.35,23.35,0,0,0,7.57-3.72l18.36-13.61a22.65,22.65,0,0,0,3.73-3.46L512,468.25a23.12,23.12,0,0,0,5.64-15.94l-.36-10A20.77,20.77,0,0,0,516.94,439.16Z"/></svg>