<svg id="Слой_1" data-name="Слой 1" xmlns="http://www.w3.org/2000/svg" viewBox="0 0 657.02 657.02"><defs><style>.cls-1,.cls-2{fill:none;stroke:#fff;}.cls-1{stroke-miterlimit:10;stroke-width:32px;}.cls-2{stroke-linecap:round;stroke-linejoin:round;stroke-width:18px;}</style></defs><circle class="cls-1" cx="328.51" cy="328.51" r="312.51"/><path class="cls-2" d="M79.24,420.93c32.26-9.68,60.22-19,83.33-27.12,10.62-3.74,21.26-7.63,29.76-17.86,6.29-7.56,9.48-17.83,15.87-38.36,4.29-13.78,4.11-15.84,8.6-29.1,5-14.73,7.6-22.23,12.57-28.44,6.75-8.43,14.4-12.5,24.47-17.85,10.29-5.48,18.78-8.1,31.08-11.91,11.51-3.56,12.16-3,26.46-7.27,15.41-4.58,23.24-6.94,29.1-10.58a66.14,66.14,0,0,0,30.42-46.3c.88-5.73,2.4-16.49-2-29.1-1.74-5-6.25-18-19.18-25.8-9.26-5.58-18.28-5.78-25.8-6s-17.59-.5-28.43,5.29a48.69,48.69,0,0,0-21.17,23.15c-6.16,14.11-3.55,26.78-2,34.39,1.16,5.66,3.35,15.69,11.24,25.14,1.42,1.7,5.15,5.92,15.87,12.56a156.43,156.43,0,0,0,39,17.2c8.89,2.55,5.92.94,35.06,7.27,16.19,3.52,22,5.08,29.1,7.94,11.57,4.66,17.62,7.1,23.15,13.23,7.3,8.1,9.16,17.64,11.9,31.74,2.45,12.56.66,13,3.31,23.15,1.62,6.24,4.29,16.13,11.9,26.46A73.23,73.23,0,0,0,471.43,370c1.71,1.12,5.41,3.43,19.84,9.26,8.5,3.43,16.58,6.3,32.41,11.91,10,3.54,17.05,6,25.79,9.26,25.95,9.57,26.55,10.72,26.46,11.24-.34,1.86-10.5,1.07-42.33-.66-20.88-1.14-38.3-2-62.17-5.29-13.18-1.83-19.31-3.16-26.45-6.62a70.24,70.24,0,0,1-25.8-21.82c-1.39-1.92-3.31-4.77-11.24-22.49-10.68-23.86-13.84-33.52-15.87-33.07-1.77.39-.53,8-1.33,27.12a223.65,223.65,0,0,1-2,24.47,168.25,168.25,0,0,1-7.28,30.42c-3.43,10.07-5.15,15.1-9.26,21.17a65.4,65.4,0,0,1-20.5,19.18c-4.16,2.55-10,6.16-18.52,7.93-6.05,1.27-9.18.71-25.13,0-15.18-.67-14.79-.27-19.84-.66-14.08-1.09-21.09-4.51-38.36-9.92-13.1-4.1-24.83-6.7-48.28-11.9-21.38-4.75-29.08-5.69-38.36-2.65-4.2,1.38-14.13,4.79-19.84,14.55-4.54,7.76-4.18,15.7-4,19.18a39.19,39.19,0,0,0,5.29,17.2c3.62,6.16,7.87,9.47,15.21,15.21a114.78,114.78,0,0,0,15.21,9.92A121.51,121.51,0,0,0,197,512.2c9.76,3.06,17.22,4,27.12,5.29a184.72,184.72,0,0,0,27.77,2,153.05,153.05,0,0,0,43.66-7.27c10.59-3.38,9.44-4.28,39.68-17.86,22-9.9,20.82-8.6,33.07-14.55,15.71-7.63,17.53-9.68,37-19.18,16.16-7.87,23.25-10.53,27.12-11.9a153.56,153.56,0,0,1,27.12-7.28c11-1.75,18-2.87,27.11-.66,5,1.21,13.63,3.43,20.51,11.24a30.06,30.06,0,0,1,7.93,17.86c.07,1,.69,12.26-7.27,21.16-3.67,4.1-8.45,6.1-17.86,9.92a139.14,139.14,0,0,1-24.47,7.94c-10.39,2.29-17.73,2.63-32.41,3.31-14.08.65-21.31,1-31.74,0a175.49,175.49,0,0,1-31.09-6c-7.93-2.18-14.63-4-23.15-7.94-11.66-5.38-19.51-11.35-27.11-17.2-8.08-6.21-13.62-10.48-19.85-17.85-7.76-9.22-11.93-17.75-15.21-24.48A156.8,156.8,0,0,1,276.33,417c-1.67-5.12-2.75-9.16-6.62-25.79s-5.77-24.77-6.61-29.1c-1.73-8.85-3.78-21-5.29-35.72"/></svg>