<svg id="Слой_1" data-name="Слой 1" xmlns="http://www.w3.org/2000/svg" viewBox="0 0 657.02 657.02"><defs><style>.cls-1,.cls-2{fill:none;stroke:#fff;stroke-miterlimit:10;}.cls-1{stroke-width:32px;}.cls-2{stroke-linecap:round;stroke-width:18px;}</style></defs><circle class="cls-1" cx="328.51" cy="328.51" r="312.51"/><path class="cls-2" d="M98.72,451.06a107.3,107.3,0,0,1,2-32.68c1.67-7.65,4.49-19.91,13.27-32.68,7.52-10.93,15.63-16.71,26.56-24.51a161.12,161.12,0,0,1,38.8-20.42c13.41-4.8,13.65-2.81,34.73-9.2,15.85-4.8,24.34-7.43,34.72-13.27,11.62-6.54,21.34-12,27.58-23.49,5.79-10.65,5.47-20.77,5.1-32.68-.33-10.72-.73-23.63-9.19-36.77A56.37,56.37,0,0,0,252.94,207c-8.52-4.78-15.87-5.8-25.54-7.15-9.09-1.27-17.64-2.46-28.59,0a62.13,62.13,0,0,0-25.53,12.26,57.94,57.94,0,0,0-18.39,27.57c-3.27,11.3-1.93,20.61-1,26.55a73.6,73.6,0,0,0,12.26,30.64c9.2,13.23,20.32,19.77,28.59,24.51,11.73,6.72,15.66,6.28,50.05,17.36,20,6.45,30.17,9.77,38.8,14.3,13.36,7,23,14.59,31.66,21.45,12.39,9.76,15.91,14.35,17.37,16.34,6,8.3,8.51,16,11.23,24.51,3.65,11.42,5.47,17.12,4.08,24.51-.68,3.66-2.48,13.29-11.23,18.38a23.16,23.16,0,0,1-22.47,0c-8.47-4.68-10.86-13.34-12.25-18.38-3.34-12.1.44-22.39,2-26.55,1.86-4.87,4.61-9.68,14.3-20.43,11.12-12.34,17.25-19.41,27.57-26.55,10.51-7.26,19.94-10.63,38.81-17.36,14.61-5.22,23.15-8.26,35.75-10.22,13.68-2.12,17.05-.61,27.57-4.08a83.69,83.69,0,0,0,24.51-13.28c6.94-5.2,13.23-9.91,18.38-18.38,5-8.19,6.17-15.39,8.17-27.58,2-11.9,2.94-17.85,1-25.53-2.12-8.47-6.39-13.93-12.26-21.44s-10.3-13.18-18.38-17.37c-7.19-3.72-13.45-4.28-22.47-5.1-6.42-.58-14.86-1.28-25.53,1-6.13,1.32-17.65,4-28.6,13.28a60.87,60.87,0,0,0-13.28,16.34A65.06,65.06,0,0,0,372.43,257c-1.31,6.62-2.88,14.53-1,24.51a55.85,55.85,0,0,0,17.37,30.64c5.18,4.67,11.76,7.84,16.34,10.21a119.88,119.88,0,0,0,11.23,5.11c19.17,7.6,39,10.56,59.23,18.38,8.34,3.22,21.44,8.38,35.75,19.41a134.47,134.47,0,0,1,26.55,27.57c6.89,9.3,13.85,18.52,18.39,32.68a90.34,90.34,0,0,1,4.08,32.68"/></svg>