<svg id="Слой_1" data-name="Слой 1" xmlns="http://www.w3.org/2000/svg" viewBox="0 0 657.02 657.02"><defs><style>.cls-1{fill:none;stroke:#fff;stroke-miterlimit:10;stroke-width:32px;}.cls-2{fill:#fff;}</style></defs><circle class="cls-1" cx="328.51" cy="328.51" r="312.51"/><path class="cls-2" d="M105.88,176.12l14.81.2c4,.05,8.28.54,12.07-.85a10.38,10.38,0,0,0,6.53-6.95c.55-2,0-3.85.12-5.85s-1-1.39,1.88-1.91c1.35-.25,5.6-1.16,6.71-.09s.58,1.12.2,2.9c-.72,3.36-.8,6.59,1.51,9.4,3,3.59,7.51,3.28,11.74,3.27l14.89,0c7.72,0,7.74-12,0-12l-14.89,0c-.42,0-3.57-.26-3.73,0l2.05,2.51.36-1.35a11.56,11.56,0,0,0,.57-5.48c-.89-9.46-11-12.19-18.91-11.25-7.76.9-15,4.22-14.45,13.26a9.87,9.87,0,0,0,.28,2.91c.7,1.12.65-.45.35-.51-1.91-.38-4.39,0-6.35,0l-15.74-.21c-7.72-.11-7.73,11.89,0,12Z"/><path class="cls-2" d="M177,175.54c12.25,2.93,18.38-6.85,26.13-14.11,1.15-1.08,7-4.7,7.11-1.68.07,1.82-5.09,6.48-6.24,7.91l-6.66,8.25c-2.8,3.47-2,8.64,2.65,10a33.75,33.75,0,0,0,32.65-8.06c8.42-8,12.74-22.25,5.84-32.55a26.3,26.3,0,0,0-7.27-6.87c-1.87-1.3-7.74-4-7.5-6.88.43-4.9,9.26,1.81,10.51,3,4.71,4.52,9.08,9.3,15.66,11,5.62,1.43,11.75.34,15.73-4.08,7.64-8.49.6-18.48-2.88-27-1.17-2.85-2.86-7.29,1-8.57,4.34-1.42,8.44,1.65,10.24,5.36,3,6.08,2.5,13.8,2.28,20.38-.23,6.88-1.5,13-7,17.58-4.47,3.67-9.88,6.06-14.54,9.49a35.75,35.75,0,0,0-11.08,12.79,132.29,132.29,0,0,0-5.76,14.56c-1.49,4.09-3.17,9-6.66,11.83-5.1,4.18-11.92,1.63-17.37-.43-5.78-2.19-11.18-4.52-17.45-4.71-10.32-.32-24.07,6.74-20.81,19.24,1.82,7,8.62,8.5,14.79,9.4l24.9,3.6c13.8,2,28.15,3.76,39.16-6.66,8.43-8,11.68-19.52,17.2-29.38,1.34-2.4,8.67-11.9,10.05-5.08,1.09,5.4-2.51,12.28-4.34,17.12-5.05,13.29-12,27-23.94,35.38s-24.76,7.89-38.12,3.9c-13.06-3.91-26.9-11.29-40.85-10.87-13.61.41-20.55,15.92-17.79,28,2.56,11.2,14.74,17.11,24.83,11a13.27,13.27,0,0,0,6.64-12l-4.41,5.78c5.93-1.39,11.54,10.66,15.42,13.92,5.68,4.78,12.68,5.54,19.58,3.13,3.25-1.14,6.29-2.8,9.55-3.9,3.79-1.28,5.61-.81,8.93,1.36,7.06,4.61,14.5,4.78,21.49-.15,6.67-4.69,11.43-11.53,17.35-17.06a100.52,100.52,0,0,1,9.4-7.83c1.62-1.18,3.28-2.32,5-3.41a31.92,31.92,0,0,0,2.92-1.83l-1.36-1.62a5.79,5.79,0,0,1,.45,1.82c0,8.54-7.11,14.72-12.89,20.24-6.58,6.3-12.94,13-19.9,18.89-7.51,6.36-15.42,5.65-24.42,3.15s-18-5-27.27-6.38c-9.68-1.47-19.43-2.37-29.18-3.19-8.75-.74-17.8-1.18-26,2.58-13.88,6.39-19.64,24.88-6.62,35.44a19.58,19.58,0,0,0,20.49,2.34,20,20,0,0,0,7.66-6.26c1.85-2.46,2.68-4.67,6.07-3.8,7.47,1.91,6.45,9.87,2,14.35-7,7-17.85,5.94-26.75,4.21-8.2-1.6-17.11-4.11-22.51,4.28-5.51,8.58-.62,17.43-1.77,26.6-1,7.64,11,7.57,12,0,.59-4.65-.56-9-1-13.58-.34-3.17-.49-6.94,3.17-7.2,1.86-.13,4.2.91,6,1.28,2.38.48,4.77.9,7.18,1.23A52.26,52.26,0,0,0,173,341c13.93-1.94,29.74-15.42,24-30.95-4.91-13.19-22.58-17-31.13-5.48-2.22,3-4.68,5.63-8.83,5a7.9,7.9,0,0,1-6.37-7.11c-.65-9,11.29-11.59,17.9-11.66,10-.09,20.28,1.3,30.2,2.5a179.85,179.85,0,0,1,29,5.95c8.73,2.56,18.09,5.2,27.16,2.7,8.49-2.34,14.71-9,20.87-14.85,11.18-10.7,31.59-24.92,28.43-42.85-1.49-8.44-8.42-12.65-16.28-8.53-7.62,4-14.76,10-21,15.89-3.62,3.45-6.79,7.28-10.26,10.87-2.56,2.65-6.57,7.11-10.69,5.6s-6.86-4.88-11.59-5.45c-4.11-.5-8.05.59-11.84,2.13-3.31,1.36-6.91,3.54-10.54,3.92-4.17.43-6.74-3.15-9-6.12-5.64-7.34-12.36-14.29-22.46-11.92a6,6,0,0,0-4.4,5.79c.09,1.75-3.11,3.54-5.57,2.09-4.61-2.72-2.49-12.84.74-15.78,4-3.68,13.85.31,18.38,1.66,7,2.11,13.84,4.81,20.84,7,13,4,26.58,5.79,39.45.5,11.81-4.85,21.17-14,28-24.7a115.88,115.88,0,0,0,9.36-18.83c2.54-6.25,5.28-12.7,6.14-19.43.66-5.08.15-10.54-3.29-14.59a14,14,0,0,0-16.21-3.66c-11.2,4.54-15,17.33-20,27.24-2.32,4.63-4.89,9.5-9,12.83-5.69,4.63-13.12,4.38-20,3.61-7.61-.86-15.2-2.16-22.78-3.26-3.83-.55-7.68-1-11.49-1.66-2.87-.49-4.78-.1-2.41-2.62,2.7-2.86,8.63-2.33,12-1.51,6.89,1.66,13,5.44,20.12,6.52,11.21,1.7,20.53-4,25.48-14,4.34-8.74,5.6-20,12.88-27,8.7-8.34,21.06-11,26.39-22.88,2.77-6.16,3.11-13,3.17-19.68.05-6.26-.12-12.81-2.17-18.78-3.62-10.51-13.67-18.1-25.1-15.27-11,2.72-13.63,13.93-9.92,23.47,1.55,4,5.89,9.43,5.9,13.83,0,5.71-7.75.86-9.85-1-5.16-4.58-9.51-10.32-16.59-12-5.68-1.32-12.25,0-16.13,4.55-4.9,5.77-3,13.84,1.81,19,4.63,5,13.42,7,13.58,14.89.27,13.24-15.4,20.74-26.7,17.35l2.65,10,9.07-11.26c2.48-3.07,5.71-6.22,7-10.06,2-6.2-1.26-12.16-7-14.87-6.22-3-12.84-1.33-18.06,2.81-4.26,3.4-10.31,14.47-16.67,12.95-7.5-1.79-10.71,9.77-3.19,11.57Z"/><path class="cls-2" d="M134.48,368.23c13,9.47,29.45,5.07,42.6-1.57,6.71-3.39,13.77-6.9,19.34-12s8.8-11.77,11.38-18.64c.9-2.41,3.66-16.5,7.18-16.71,4.17-.25,2.23,12.17,1.89,14a60.55,60.55,0,0,1-8.78,22c-3.61,5.57-8.26,10.9-5.76,18,1.92,5.45,7.46,8.77,13,9.43,6.68.8,12.61-2.45,16.8-7.53,9.79-11.88,13.32-27.78,17.21-42.21.87-3.24,2.06-6.78,5.11-8.58,2.26-1.34,4.42-1.43,5.39,1.27.91,2.51.1,5.83-.45,8.35-.93,4.31-2,8.6-3.19,12.85-4,14.71-10.07,29.77-22.45,39.44-13.62,10.64-29.16,8-44.57,3.39-15.25-4.56-30.88-10-46.82-5.44-7.41,2.11-4.26,13.69,3.19,11.57,14.67-4.18,29.46,2.32,43.44,6.33,14.64,4.19,29.68,5.95,43.77-1.07s23.7-20.66,29.59-34.93A166.09,166.09,0,0,0,270,341.3c1.67-6.93,3.58-14.72.43-21.53a14.44,14.44,0,0,0-16.36-8c-7,1.52-12.07,6.83-14.71,13.3-3.25,7.95-3.87,16.66-7.21,24.65-2.59,6.23-5.69,16.05-11.56,20-1.49,1-4.85,2-6.34.2s1.64-4.82,2.8-6.48a70.91,70.91,0,0,0,10.27-22c2.88-10.59,5.18-33.45-11.39-34.14-8.07-.33-13,6.41-15.57,13.22-3,7.95-4.52,16.68-10.18,23.35s-15.87,11.35-23.92,14.73c-8.45,3.55-17.89,5-25.7-.71-6.25-4.55-12.25,5.86-6.06,10.37Z"/><path class="cls-2" d="M134.48,384.73c-8,14.36-7.15,32.88,2.8,46.13,4.92,6.55,12.35,12.41,21,12.22a16.7,16.7,0,0,0,16.6-14.7c.11-.93,0-3.84.71-4.36s3.3.89,3.94,1.3c3.37,2.15,5.78,5.65,9.18,7.86,8.5,5.52,18.26,2.79,26.61-1.53,15.43-8,31.09-17.6,43.74-29.6,13.64-12.94,21.76-29.13,24.7-47.67,1.56-9.88,2.12-19.86,2.86-29.83.36-4.89.51-9.95,1.87-14.69s4.43-7.72,8.08-10.76c6.39-5.32,12.2-10.51,16.33-17.86a58.61,58.61,0,0,0,7.06-22.35,55.71,55.71,0,0,0-2.23-23.13,53,53,0,0,0-4.78-10.71c-2-3.42-6-7.19-5.74-11.43s3.44-8.15,5.12-11.84c1.84-4.05,3.1-8.25,2.52-12.73-.65-5.09-3.57-9.19-5.89-13.63a58.21,58.21,0,0,1-5.13-14.85c-2.24-10.43-2.13-21.26-1.67-31.87.15-3.46.16-27.61,8.44-21.79l-2.75-6.77a119.78,119.78,0,0,0,6.08,66.17c4.26,10.64,10.82,19.72,8,31.62-1.22,5.09-2.74,10-3.15,15.29-.48,6.12.73,12.36,2.26,18.26,5,19.21,12,42-1.52,59.57-6.51,8.47-15.45,14.47-21,23.79-5.09,8.54-7.76,18.32-9.35,28.06-3,18.66-2.18,39.13-11.33,56.25a38.08,38.08,0,0,1-20.62,18c-9.52,3.73-19.6,6-28.25,11.72s-16.09,14.51-26.47,17c-5.4,1.29-8.62-.6-13.48-2.44-5.35-2-10-.43-14.3,2.95-7.12,5.55-14.73,12.51-16.94,21.63a19.08,19.08,0,0,0,9.39,21.25c4,2.26,9.06,2.91,13.32.91,5-2.33,5.6-7,9.07-10.6,2.83-2.9,7.47-3,11.25-3.14,5.06-.21,10.13-.09,15.14-1,9.15-1.63,16.6-7.35,23.53-13.19,6.53-5.51,13.58-12.77,22.59-13.52l-5.18-3c2.76,6.29-.76,13.72-5.33,18.14-5.71,5.51-13.89,7.75-21.46,9.3-15,3.09-31.78,3.89-41.33,17.69-7.67,11.09-5.4,27.76,8.88,31.71,5.39,1.49,11.77.75,16.08-3a14.84,14.84,0,0,0,4.38-7c.35-1.14,1.53-3.69.22-3.65,1.07,0,1.62,1.21,1.94,2,1.35,3.24-.24,8.21-.34,11.58a22.71,22.71,0,0,0,1.86,10.33,13.88,13.88,0,0,0,16.06,7.72,19.65,19.65,0,0,0,13.47-13.27,30.12,30.12,0,0,0,.63-11.81c-.46-3.9-2-8.11-1.86-12,0-.55.78-3,.74-3l-1.36.49c-1.64.09-1.82.72-.54,1.86a13,13,0,0,0,1.12,2.11,45.17,45.17,0,0,1,3.79,11.32A47.06,47.06,0,0,1,252.61,539c-3.38,11.21-17.9,29.27-1.05,37.09,12.54,5.82,32.68,6.62,38.35-8.79a14.54,14.54,0,0,0-5-17.19c-.8-.59-2.12-1.79-3.1-2-2.51-.54-.07-.44-1.13.45,2-1.67,4.21-3,6.26-4.61,4.51-3.54,7.4-8.57,6.17-14.43-1.07-5.13-4.59-9.14-7.71-13.16-1.35-1.74-6-6.33-1.88-5.8,3.11.41,5.65,3.13,8,5,3,2.37,6.25,4.57,10.09,5.35,7.62,1.54,11.86-5.81,12.12-12.58a21,21,0,0,0-8.18-17c-6-4.67-13.35-6.18-20.65-7.44a65.18,65.18,0,0,1-10.54-2.41,19.26,19.26,0,0,1-4.71-2.31,20.35,20.35,0,0,0-2.24-2c1.38.55-1.34,1.91,1.11.56,6.65-3.64,12.37-5.57,19.63-1.84,6.14,3.15,13,7.7,20,4.37,6.54-3.09,8.52-10.61,6.06-17.1-2.91-7.68-10.39-10.47-17.46-13.21-5.4-2.1-13.11-5.94-12.78-12.8.31-6.55,7.78-5.52,12.54-6.13,6.22-.8,12.06-3.73,13.66-10.32a16.5,16.5,0,0,0-.67-9c-.86-2.62-3.45-6.21-3.29-9s3.43-4.33,5.13-6.21a24.15,24.15,0,0,0,5.15-9.22c1.91-6.29,1.37-13.06,1.32-19.53-.05-6,0-12.8,5.4-16.58,5.55-3.91,13.61-4.13,20.09-5.17,29.95-4.81,60.79-14.25,83.36-35.48,23.72-22.33,34.33-55.92,35.86-87.76,1.54-32.17-7.81-65.1-30.49-88.63a91,91,0,0,0-36.46-23.39c-7.05-2.35-15-1.21-17.38,6.88-1.87,6.39.61,13,3.81,18.52,7.11,12.26,19.48,20.18,31.23,27.47,12.35,7.67,23.78,15.71,33.47,26.69,19.66,22.31,30.59,51.32,35.24,80.38,1.14,7.13,2.36,14.74,2.08,22-.27,6.61-4.63,9.62-11,7.85-6.62-1.83-10.27-8.64-12.93-14.45-3.82-8.36-6.89-17.11-10.27-25.65-6.09-15.38-11.19-31.82-19.37-46.26-6.37-11.24-16.22-22-30-22.62-13.28-.6-24.9,10.12-27.08,22.92-2.48,14.53,8,26,20.7,31.14,11.38,4.64,28.87,6.87,37.67-3.86,5.08-6.19,4.65-14.64,4.18-22.18-.47-7.38-1.55-14.8-4.39-21.66-6.3-15.22-19.91-21.2-34.27-27-13.85-5.57-26.08-14.22-35.15-26.17a70.91,70.91,0,0,1-10.83-19.62c-1.54-4.56-3.32-11.93.17-16.1,4.16-5,10.37.46,12.63,4.5,3.81,6.78,1,14.71-1.87,21.32-6.87,15.69-14.25,31-12.44,48.7,1.2,11.72,8.24,26,22,25,13-.94,16.51-14.12,24-22.33,4.49-4.95,10.68-5,16.28-1.68,6.5,3.85,9.55,11.25,11.49,18.22,4.45,16,7.89,35.15,2.31,51.21-4.77,13.73-17.22,24-32.27,20.73-16.4-3.56-26.67-17.57-33.93-31.7-1.85-3.6-3.94-7.35-5-11.28-.52-2-1-9.28,2.77-7.79,2.42.95,3.1,6.58,3.42,8.65a43.44,43.44,0,0,1,0,12.88c-2.3,15.3-17.19,28.21-13.94,44.36,2.82,14,19.25,20.42,31.86,15.63,6.95-2.64,12.43-7.7,16.53-13.82,1.7-2.55,7.05-18.64,11.23-17,1.8.71,2.48,7.61,3.07,9.53a103.53,103.53,0,0,0,4.27,11.4,98.58,98.58,0,0,0,12.47,20.92c9.06,11.73,20.61,21.74,35.05,26.06,13.9,4.16,29,1.2,37.68-11.05s10.13-30.93,4.9-44.65-19-24.6-34.36-22.12c-14.1,2.28-21.88,15.14-26.65,27.36-6.11,15.62-11.56,33.23-11.4,50.13.13,14.6,5.6,29.68,17.1,39.16A35.86,35.86,0,0,0,467,389.66c3.42.43,6.13-.17,7.59,3.39a48.85,48.85,0,0,1,3.14,13.38c.68,7-.62,15-7.59,18.36-4.95,2.41-10.6.95-10.94-5.23-.83-15.2,20.16-19.4,30.48-24.48,12.53-6.18,24.62-19.67,18.73-34.49-5.21-13.08-20.35-18.54-33.42-16-16.29,3.2-27.58,16.48-39.65,26.68A61.4,61.4,0,0,1,426,378c-1.51.85-3.46,2.18-5.21,2.28-2.3.14-2.73-1-3.59-3.06a29.17,29.17,0,0,1,.31-22.59c.42-1,2.41-3.72,1.83-4a8.93,8.93,0,0,1-.26,2.78c-1.19,3.59-5.54,7-8.18,9.57-5.19,5-11.51,10.15-18.94,11.14-5.53.74-12.67-1.81-15.19-7.15-3-6.4,4-14.08,8.56-17.84,2.46-2,4.89-3.81,5.69.12A23.78,23.78,0,0,1,389.89,361c-2.57,8.06-8.08,14.77-13.79,20.82S364.41,393.48,359.32,400c-4.24,5.41-8.64,11.71-6.21,18.88,4.11,12.15,21.79,11.67,31.69,8.84,6-1.7,12.38-4.84,15.36-10.58,3.43-6.61.76-14.11-4.45-18.91-9.63-8.88-24.14-10.18-35.94-5.17a33.17,33.17,0,0,0-20.16,31c0,13.12,7,26.25,18.65,32.59,12.31,6.69,28.11,6.06,40.07-1.13a45.62,45.62,0,0,0,14.86-15.34,88.4,88.4,0,0,0,5.32-10.22c.79-1.75,1.55-3.53,2.31-5.3.38-.89,2.3-3.95,2.13-4.73l.32-.56-1.9,0a19.72,19.72,0,0,0,1.64,2.56,34.71,34.71,0,0,1,2.33,4.74A37.52,37.52,0,0,1,423.51,458l3.59-2.76,4.13,1.8c-.15-.25,0-.49.34-.72.67-.49,1.14-1.27,1.86-1.76a9.88,9.88,0,0,1,5.09-1.56c4.84-.26,8.62,2.68,10.72,6.89,4.3,8.62.85,18.56-5.67,25-16.27,16-40.4,11.33-59.15,3.05-5.45-2.41-10.75-5.13-16.05-7.84s-11-6.12-16.95-7.5c-11.55-2.67-21.87,4.06-24,15.79-3.79,21.19,20.43,37.87,38.7,26.35a26.13,26.13,0,0,0,11.51-29.46c-3.41-11.67-13.29-20.12-23.12-26.51l1.22,9.42c8.6-7.14,21.6-6.94,29.67.9,7.81,7.58,8.46,18.48,4.32,28.15-4.55,10.62-13.1,19.43-21.26,27.38-3.87,3.78-8,7.49-12.86,9.92-5.11,2.54-10.3,1.79-15.64,3.08-10.85,2.61-13.22,14.13-6.19,22.07,7.22,8.17,20.43,11.18,30.95,10.35s19.61-6,23.55-16c3.67-9.32.89-19.09-7.58-24.53-2.59-1.66-10.56-3.93-7.62-8.08,3.71-5.23,10.49-2.51,14.89,0,11.84,6.76,22.43,16,36.71,9.93,7.09-3,1-13.36-6-10.36-5.65,2.4-12.4-2-16.9-5-5-3.29-10-6.84-15.8-8.57-9.66-2.86-21.46,1.17-24.9,11.33A13.73,13.73,0,0,0,363.42,532c3.19,4,8,5.15,11.81,8.2,3.18,2.54,3.29,6.29,1.77,9.9-2.14,5-7,7.44-12.24,7.95a36.21,36.21,0,0,1-15.89-2.29,15.66,15.66,0,0,1-5.65-3.54c-1.71-1.76-2.64-2.64,0-3,5.54-.8,10.49-.78,15.76-3a53.24,53.24,0,0,0,14-9.31c15.88-13.93,34.78-34.73,30.86-57.63a34.68,34.68,0,0,0-20.6-25.66c-12.26-5.15-25.93-2.19-36,6.15-3.13,2.6-1.75,7.49,1.21,9.42,9.28,6,25,19.52,15.5,31.73-3.63,4.65-10.25,7.39-15.93,5-5.48-2.3-9.59-8.52-9-14.52,1-9.15,9.14-7.84,15.43-4.86,7.21,3.42,14.16,7.36,21.41,10.71,13.89,6.42,29.39,12,44.95,10.25C433.34,506,446,500.69,454.24,491c8.5-9.95,11.57-23.75,6-35.9-5.48-11.86-19.38-17.63-31.35-11.69-5.27,2.61-9.9,8-9.6,14.18s6.25,12.21,12.47,8.64c2.83-1.63,4.25-6.22,5.32-9.1a47.18,47.18,0,0,0,2.46-10.42,49.49,49.49,0,0,0-1.83-21.15c-1.83-5.73-5.08-14-10.71-17.09-6.52-3.53-12.49,1.24-15.21,7-6.07,13-11.05,28.2-26.36,32.58-12.06,3.45-25.47-.86-31.13-12.52-5.16-10.66-2.81-24.42,8-30.46a24.06,24.06,0,0,1,16.35-2.59c3.49.72,13.7,4.89,10.45,9.74-2.62,3.92-10.72,5-15,5.1-3.09.06-11.37.1-9-4.76,3.32-6.87,10.09-12.6,15.35-18s10.5-10.89,14.66-17.21a47.85,47.85,0,0,0,8-21.08c.71-6.7-.17-15.29-6.18-19.46-12.46-8.64-27.78,9.09-31.61,19.6-4.84,13.25,5.12,25.76,17.87,28.89,14.42,3.55,27.59-5.3,37.32-15,4.94-5,10.83-10.85,11-18.33.13-6.14-4.39-12.36-10.6-13.29-15.59-2.34-18.83,23.54-17.26,33.93,1,6.58,3.48,14.79,9.69,18.23,6.82,3.79,14.89-.07,20.82-3.81,13-8.23,22.35-21.58,36.34-28.32,5.87-2.83,12.65-4.07,18.8-1.41,5.21,2.26,9.77,7.22,8.48,13.24-3,14-23.61,17.09-34.05,23.09-10.88,6.25-19.94,19.24-15.35,32.25s20.28,15,30.62,7.51c13.07-9.42,12.21-26.62,8.18-40.54-1.92-6.61-4.91-12.74-12.21-14.34-6.64-1.46-12.19-1.22-17.85-5.66-11.79-9.24-14.71-24.92-13.09-39,1-8.9,3.64-17.59,6.32-26.1,2.07-6.57,4.08-13.22,7.42-19.27,2.85-5.17,6.89-10.32,12.94-11.71,6.57-1.5,13.39,1.79,17.69,6.71,9.08,10.37,8.62,30.41.79,41.38-8.48,11.89-24.65,7.71-35.22,1.36-12.61-7.59-22.13-20.57-28.36-33.68-3.29-6.93-4.39-14.41-7.24-21.42a13,13,0,0,0-16.24-7.78c-14.76,4.51-12.75,25.21-27.21,30.85-4.82,1.87-11.47,1-14.72-3.36-4.45-6,.48-14.21,3.42-19.68,7.56-14.07,12.28-28.92,8.18-45-1.58-6.21-5.33-12.43-11.9-14.14-7-1.84-13.72,2.91-16.4,9.21-3.23,7.62-.06,15.54,3.23,22.54a114,114,0,0,0,11.82,20.27c8.8,11.71,20.89,20.9,35.73,22.87,14.26,1.89,27.31-4.3,35.84-15.68,9.39-12.53,11.48-28.61,10-43.83-1.43-14.77-3.66-32.6-12.81-44.83-7.78-10.42-23.13-16.67-35-9.09-4.79,3.07-8.07,7.83-11.09,12.53-2.2,3.42-4.73,9-8.92,10.32-5.07,1.64-8.09-4.18-9.37-8.13-2.24-6.86-1.5-14.66-.1-21.61,3.17-15.8,14.85-29.39,15.18-45.77C378.2,109,368.59,95.2,355.78,95c-14.26-.18-19.48,14.39-17.72,26.32,2,13.32,10.2,26.08,18.95,36,9.57,10.85,21.55,18.77,34.87,24.25,6.63,2.73,13.66,5,19.54,9.25s9.18,10.41,10.88,17.36c1.63,6.65,2.77,15,1.73,21.78-1.07,7.05-8.32,7.74-14.25,7.23-10.58-.9-26.91-7.62-24.63-20.85,2.22-12.87,16.43-16.1,25.59-8.24,10.5,9,15,23.86,19.87,36.27,6.29,15.87,12,32.18,19.09,47.7,5.42,11.82,15.49,22.44,29.57,20.65,6.16-.78,11.66-4.09,14.49-9.74,3.24-6.44,2.28-14.12,1.61-21-2.71-28.33-10.75-56.59-25.86-80.89a134.2,134.2,0,0,0-26.61-31.37c-10.53-9-22.71-15.36-34-23.21-5.28-3.66-10.47-7.85-14.31-13.05a31.2,31.2,0,0,1-4.3-7.63,19.83,19.83,0,0,1-.7-3.74,2.42,2.42,0,0,1,.2-1.29c-.94,1,1,1,1.9,1.26,13.4,4.26,25.18,12.9,34.46,23.32,21,23.59,27.11,56.34,23.62,87-3.46,30.44-16.5,60.73-42.46,78.4-12.17,8.28-25.85,13.85-40,17.8-6.9,1.93-13.9,3.49-20.95,4.77-6.87,1.26-14,1.79-20.74,3.76-14.13,4.17-19.75,15.2-19.81,29.26,0,5.89,1.07,12.65-1.08,18.3-2.3,6-9.16,8.37-10.27,15.28a17.41,17.41,0,0,0,.86,8.34c.77,2.33,3.49,6.23,3.2,8.75-.4,3.5-10.07,2.59-12.91,3.21-13.22,2.89-17.27,18.5-9.87,29,4,5.7,10,9.15,16.36,11.68,3.12,1.25,7.54,2.19,9.89,4.81,1.74,1.94,2.12,4.23-1,3.25-3.31-1-6.24-3.36-9.41-4.77a29.25,29.25,0,0,0-10-2.45,29.59,29.59,0,0,0-19.24,5.6c-5.52,4.08-9.21,10.12-4.81,16.53,3.87,5.64,10.93,8.59,17.33,10.17s13.35,1.77,19.49,4.38c4.14,1.76,10.54,7.93,6,12.48l4.25-1.76c-3.48-.32-6.52-3.79-9.14-5.79a22.11,22.11,0,0,0-11.64-4.88c-7.15-.56-14.05,4.53-14,12.05,0,6,4.36,10.66,7.78,15.09,1.21,1.56,3.74,4.1,3.79,6.18.05,1.86-1.89,2.79-3.36,3.81-5.15,3.57-10.8,7.9-8.83,15.06,1,3.52,3.67,5.81,6.58,7.74s4.37,3,2.08,6.36-6.65,3.37-10.2,3c-2.48-.25-11.07-1-12.12-3.63s2.31-7.69,3.46-9.86a67,67,0,0,0,5.46-12.91,60.37,60.37,0,0,0,1.34-26.06c-1.21-7.56-4.14-18.13-10-23.49-6.43-5.83-14.56-1.4-16.85,5.94-2.73,8.75,3.69,17.75.8,26.29-.62,1.83-3.29,5.6-5.75,4.92-3.16-.87-2-7.27-1.82-9.58.74-8.29.16-17.19-8.35-21.16s-14.92,1.52-16.91,9.62c-.61,2.47-1.35,3.44-4,3.44a6.89,6.89,0,0,1-6-3c-2-3.54,0-8.35,2.17-11.28,3-4,7.48-6.35,12.18-7.82,10-3.11,20.57-3.38,30.54-6.58,18.1-5.79,34.12-23.09,25.42-42.89a5.79,5.79,0,0,0-5.18-3c-17.22,1.42-26.35,15.66-40.2,23.76S187.87,459,178,475.12c-1.71,2.81-1.88,5.53-5.35,3.49-3.3-1.94-4.16-5.3-3-8.76,1.38-4.08,4.67-7.31,7.77-10.16a48.72,48.72,0,0,1,4.51-3.87c3-2.12,4.28-.23,7.46,1,21.22,8.18,35.71-13.92,52.71-21.52,9-4,18.92-5.94,27.61-10.85a47.78,47.78,0,0,0,18.41-19.25c9-16.82,9.42-35.9,11.84-54.36,1.21-9.26,3-18.87,7.33-27.23,4.76-9.21,12.95-15,19.56-22.75,13.16-15.34,14.2-35.68,10.35-54.74-2.5-12.38-8.62-24.56-5.73-37.38,1.26-5.61,3.18-11.08,3.38-16.88.18-5.6-1.46-11-3.63-16-4.93-11.58-9.9-22.42-12.11-34.93a106,106,0,0,1,.26-37.56,6.33,6.33,0,0,0-2.76-6.78c-6.45-4.54-15.21-2.17-20.18,3.44-5.81,6.57-5.67,16.24-6.11,24.49-1,18.22-.9,37.08,6.78,54,1.68,3.71,4.89,7.43,5.73,11.43.71,3.34-1.27,6.63-2.74,9.49-3.82,7.44-6.81,14.79-3,22.93,3.36,7.19,8.27,12.56,10.1,20.53a45.63,45.63,0,0,1-.47,21.79,42.46,42.46,0,0,1-10.62,19.06c-6,6.13-13.77,10.21-17.51,18.34-3.91,8.5-3.75,18.64-4.4,27.81-.66,9.44-1.27,18.94-3.35,28.21-4,17.74-14.19,31.45-28.44,42.45A204.79,204.79,0,0,1,221,414.58c-6.36,3.75-17.37,12.68-25.09,9-3.78-1.81-6.35-5.89-9.83-8.24a18.33,18.33,0,0,0-11-3.25,12.25,12.25,0,0,0-10.26,6.29c-2,3.63-.23,10.33-4.39,12.22-7.83,3.56-15.44-8.37-17.53-14.26a31,31,0,0,1,1.94-25.53c3.76-6.76-6.6-12.81-10.36-6Z"/><path class="cls-2" d="M422.6,531c16.36.88,26.5-19.76,16.31-32.29-2-2.49-6.49-5.17-7.1-8.44-.84-4.48,4.9-6.57,8.36-6.1,4.67.64,7.89,4,11.33,6.8,3.87,3.18,8.41,4.64,13.39,3.45,16.37-3.9,26.95-23.28,25.43-39.2-.89-9.41-5.15-16.71-15.05-18.34-9-1.48-18.67-2.2-27.76-.7-9.54,1.57-16.31,6.55-23.18,13-2.76,2.59-6.05,5.93-10.12,5.93s-7.53-3.23-9.31-6.62c-8.2-15.61,18.91-38.31,32.33-26.36,3,2.69,5.38,6,8.47,8.62a40.64,40.64,0,0,0,12.87,7.36,31.16,31.16,0,0,0,26.1-2.38c16.46-9.86,16.7-30.68,3.82-43.63-15.69-15.77-38.4-12.1-58.24-9.1-5,.76-9.57,1.44-13.53-2.26-3.76-3.52-6.93-7.67-10.66-11.24-7.38-7-15.84-13.42-21.68-21.9-5.26-7.64-8.72-17.34-4.47-26.23a20.62,20.62,0,0,1,19.14-12c20.6.82,20.66,25.2,31.36,37.72,10.53,12.33,27.79,17.95,43.67,17.25a64.87,64.87,0,0,0,11.61-1.59c3.67-.85,9-3.74,12.83-2.82,3.46.84,4.22,5.82,4.3,8.92a23.39,23.39,0,0,1-3.43,12.23c-9.87,17.07-33.37,18.79-50.78,21.65-11.13,1.82-22.27,3.58-33.38,5.49-8.41,1.44-16.86,3.36-24.47,7.36-18.41,9.67-21.31,29.5-17.38,48.24,3.28,15.63,11.28,33.2,26.83,39.83,9.29,4,18.78,2.29,28.34.41,4.47-.88,9.11-1.83,13.69-1.22s8.67,2.52,12.63,4.52c7.67,3.88,15.24,8.63,23.87,9.95,10,1.54,18.33-3.54,28.05-4.59,11.38-1.23,22.77,1.19,33.85,3.51,7.54,1.58,10.76-10,3.19-11.57-10.91-2.29-22.12-4.64-33.34-4.19a63,63,0,0,0-16,2.68c-4.35,1.34-8.58,3.1-13.23,2.5-8.53-1.11-16-6.75-23.63-10.26a45,45,0,0,0-27.17-3.85c-9.17,1.46-19,5.08-27.68.05-6.91-4-11.36-11.46-14.23-18.69-6.39-16.14-9.27-38.14,8.91-47.28,8-4,17.25-5.23,25.95-6.66l34.08-5.6c18.19-3,38.27-6.83,49.89-22.64,5-6.79,8.09-15.4,7.34-23.89-.77-8.7-5.38-17.72-14.87-18.76-8.31-.92-16.18,3.63-24.41,4.19a49.13,49.13,0,0,1-23.19-3.78,34.83,34.83,0,0,1-16.85-15.18c-4.54-8.49-6.11-18.1-12.79-25.43-12.06-13.24-33.36-13.79-46.26-1.64-14.57,13.7-12,34.5-.87,49.41,6.14,8.25,14,14.71,21.48,21.73,6.7,6.33,12.32,15.81,22,17.79,10.37,2.13,21.94-2.27,32.38-2.9,9.79-.59,20.07.42,27.65,7.27,6.08,5.5,9.89,14.53,4.31,21.79s-15.82,8.07-23.68,4.28c-8.45-4.07-12.63-13.26-21.28-16.95s-18.69-1.51-26.66,3c-15.18,8.67-27.09,29-15.54,45.26,5.07,7.12,13.69,11.61,22.49,9.62s13.6-9.66,20.56-14.57c7.93-5.6,18.4-5,27.59-4.15,3.2.29,8.65-.08,10.52,3s1.44,8.9.74,12.36c-1.56,7.79-6.68,15.66-14.17,18.89-4.39,1.89-7-2.73-10.35-5.05a27.24,27.24,0,0,0-14-5c-8.73-.42-17.33,5.41-19.31,14.12a15.51,15.51,0,0,0,2,11.6c2.18,3.55,6.05,5.77,8.18,9.27,3.2,5.26-2,12.21-7.69,11.9-7.72-.41-7.69,11.59,0,12Z"/></svg>